<svg version="1.1" width="131" height="31" viewBox="0 0 131 31" xmlns="http://www.w3.org/2000/svg" id="betreutDeLogo">
    <g fill="none" fill-rule="evenodd">
        <g transform="translate(-428 -10)">
            <g transform="translate(428 10)">
                <path d="m5.6757 14.978s5.4768-21.142 24.207 7.2132c0 0-14.619-20.207-24.207-7.2132" fill="#4A4A4A"/>
                <path d="m14.274 11.478s1.5952 0.14653 2.0158 0.4362c0 0-7.2825 9.9224-15.582 11.613 0 0 3.501-1.797 13.566-12.05" fill="#4A4A4A"/>
                <path d="m17.57 7.7429s0.95909 0.41943 1.58 0.98133c0 0 8.2025-8.1213 15.2-8.1239 0 0-5.2137-3.6709-16.78 7.1425" fill="#4A4A4A"/>
                <path d="m20.676 9.8148s0.72262 0.60069 1.362 1.3084c0 0 6.8038-7.7581 14.492-7.9604 0 0-4.7785-3.6529-15.854 6.652" fill="#4A4A4A"/>
                <path d="m25.892 15.266l0.85837 1.0921s1.1571-2.1263 4.3858-3.7632c0 0-3.0525-0.1467-5.2442 2.6711" fill="#4A4A4A"/>
                <path d="m23.59 12.623l1.0896 1.1995s2.5727-3.1876 8.826-6.0519c0 0-5.0245-0.32677-9.9155 4.8524" fill="#4A4A4A"/>
                <path d="m24.408 17.312l1.0177 0.92661s-6.23 12.43-18.724 12.595c0 0 11.284-3.0842 17.706-13.522" fill="#4A4A4A"/>
                <path d="m22.895 15.902l-1.266-0.98997c-8.8046 11.776-21.629 15.43-21.629 15.43s14.174-1.3266 22.895-14.44" fill="#4A4A4A"/>
                <path d="m18.306 12.786l1.4711 0.81803s-6.438 10.167-16.726 13.467c0 0 11.592-8.6404 15.255-14.285" fill="#4A4A4A"/>
                <path d="m38.264 16.667v7.4264h4.1011c0.50206 0 0.97635-0.10215 1.4227-0.30712 0.44637-0.20446 0.83704-0.47466 1.1717-0.80956 0.33482-0.33507 0.5999-0.72587 0.79507-1.1726 0.19534-0.44687 0.29301-0.92136 0.29301-1.424 0-0.50261-0.097669-0.9815-0.29301-1.4379-0.19517-0.45585-0.46025-0.85157-0.79507-1.1865-0.33465-0.33507-0.72533-0.60035-1.1717-0.79584-0.44637-0.19532-0.92066-0.29306-1.4227-0.29306h-4.1011zm0-6.952v5.221h4.1011c0.35293 0 0.68792-0.074197 1.0043-0.22344 0.31603-0.14873 0.59025-0.34422 0.82299-0.58646 0.23224-0.24156 0.4137-0.52073 0.54404-0.83734 0.12983-0.31644 0.19534-0.64219 0.19534-0.97726 0-0.35337-0.065508-0.68403-0.19534-0.99115-0.13034-0.30712-0.3118-0.58155-0.54404-0.82362-0.23275-0.24156-0.50697-0.43281-0.82299-0.57223-0.31637-0.13958-0.65135-0.20955-1.0043-0.20955h-4.1011zm-1.7296-0.86546c0-0.24173 0.08362-0.4467 0.25103-0.61407 0.16741-0.1677 0.37189-0.25139 0.61378-0.25139h4.9659c0.59499 0 1.1529 0.11163 1.6739 0.33507 0.52034 0.22327 0.97635 0.53039 1.3669 0.92136 0.39051 0.3908 0.7018 0.85157 0.93471 1.382 0.23224 0.53039 0.3487 1.0935 0.3487 1.6891 0 0.67014-0.14913 1.2939-0.44637 1.8707-0.29775 0.57714-0.68842 1.0704-1.1719 1.4795 0.81826 0.46551 1.4738 1.1124 1.9669 1.9405 0.49258 0.82853 0.73938 1.7545 0.73938 2.778 0 0.74468-0.13965 1.4475-0.41861 2.1078-0.27896 0.66099-0.66523 1.2381-1.1576 1.7311-0.49309 0.49329-1.0698 0.88426-1.7298 1.1726-0.66033 0.28883-1.3626 0.43281-2.1062 0.43281h-4.9659c-0.24189 0-0.44637-0.083852-0.61378-0.25156-0.16741-0.16737-0.25103-0.37183-0.25103-0.61407v-16.109z" fill="#4A4A4A"/>
                <path d="m38.264 16.667v7.4264h4.1011c0.50206 0 0.97635-0.10215 1.4227-0.30712 0.44637-0.20446 0.83704-0.47466 1.1717-0.80956 0.33482-0.33507 0.5999-0.72587 0.79507-1.1726 0.19534-0.44687 0.29301-0.92136 0.29301-1.424 0-0.50261-0.097669-0.9815-0.29301-1.4379-0.19517-0.45585-0.46025-0.85157-0.79507-1.1865-0.33465-0.33507-0.72533-0.60035-1.1717-0.79584-0.44637-0.19532-0.92066-0.29306-1.4227-0.29306h-4.1011zm0-6.952v5.221h4.1011c0.35293 0 0.68792-0.074197 1.0043-0.22344 0.31603-0.14873 0.59025-0.34422 0.82299-0.58646 0.23224-0.24156 0.4137-0.52073 0.54404-0.83734 0.12983-0.31644 0.19534-0.64219 0.19534-0.97726 0-0.35337-0.065508-0.68403-0.19534-0.99115-0.13034-0.30712-0.3118-0.58155-0.54404-0.82362-0.23275-0.24156-0.50697-0.43281-0.82299-0.57223-0.31637-0.13958-0.65135-0.20955-1.0043-0.20955h-4.1011zm-1.7296-0.86546c0-0.24173 0.08362-0.4467 0.25103-0.61407 0.16741-0.1677 0.37189-0.25139 0.61378-0.25139h4.9659c0.59499 0 1.1529 0.11163 1.6739 0.33507 0.52034 0.22327 0.97635 0.53039 1.3669 0.92136 0.39051 0.3908 0.7018 0.85157 0.93471 1.382 0.23224 0.53039 0.3487 1.0935 0.3487 1.6891 0 0.67014-0.14913 1.2939-0.44637 1.8707-0.29775 0.57714-0.68842 1.0704-1.1719 1.4795 0.81826 0.46551 1.4738 1.1124 1.9669 1.9405 0.49258 0.82853 0.73938 1.7545 0.73938 2.778 0 0.74468-0.13965 1.4475-0.41861 2.1078-0.27896 0.66099-0.66523 1.2381-1.1576 1.7311-0.49309 0.49329-1.0698 0.88426-1.7298 1.1726-0.66033 0.28883-1.3626 0.43281-2.1062 0.43281h-4.9659c-0.24189 0-0.44637-0.083852-0.61378-0.25156-0.16741-0.16737-0.25103-0.37183-0.25103-0.61407v-16.109z" stroke="#4A4A4A" stroke-width=".5"/>
                <path d="m60.639 18.175c-0.11155-0.5768-0.31654-1.1168-0.61378-1.6195-0.29775-0.50244-0.66507-0.93525-1.102-1.2981-0.43723-0.36302-0.93014-0.65134-1.4786-0.86563-0.54878-0.21361-1.1299-0.32101-1.7437-0.32101-0.61378 0-1.1952 0.1074-1.7437 0.32101-0.54878 0.21429-1.0417 0.50261-1.4786 0.86563-0.43723 0.36285-0.7998 0.79567-1.0881 1.2981-0.28844 0.50261-0.48818 1.0427-0.59973 1.6195h9.848zm-9.8759 1.7309c0.09293 0.59595 0.2881 1.1495 0.58585 1.6611 0.29741 0.51209 0.66473 0.95422 1.102 1.3262 0.43689 0.37268 0.93471 0.66591 1.4926 0.87952 0.55792 0.21412 1.1438 0.32101 1.7575 0.32101 0.68792 0 1.3296-0.12552 1.9249-0.37691 0.59499-0.25122 1.1251-0.60018 1.5903-1.0469 0.16724-0.1677 0.37189-0.25139 0.61378-0.25139 0.24138 0 0.4462 0.083683 0.61361 0.25139 0.16741 0.16754 0.2512 0.37251 0.2512 0.61424 0 0.24207-0.083789 0.44654-0.2512 0.61407-0.61361 0.68878-1.3068 1.1775-2.0783 1.466-0.77204 0.28849-1.6599 0.43281-2.6643 0.43281-0.93014 0-1.7993-0.16787-2.6085-0.50261-0.80895-0.33524-1.5204-0.80024-2.1342-1.3962-0.61378-0.59527-1.0976-1.3027-1.4507-2.1219-0.35361-0.8187-0.53016-1.7121-0.53016-2.6801 0-0.93051 0.17181-1.8009 0.51611-2.6104 0.34396-0.80973 0.81826-1.5168 1.4227-2.1219 0.6043-0.60458 1.3205-1.0889 2.1482-1.4517 0.8274-0.36302 1.7249-0.56274 2.6923-0.60035 0.87395 0 1.7157 0.17719 2.5248 0.53056 0.80895 0.3537 1.5204 0.83751 2.1342 1.4517 0.61378 0.61407 1.1062 1.3261 1.4786 2.1358 0.37172 0.80973 0.55792 1.6799 0.55792 2.6104 0 0.27917-0.093268 0.49329-0.27896 0.64219-0.1862 0.14907-0.38137 0.22327-0.58585 0.22327h-10.825z" fill="#4A4A4A"/>
                <path d="m60.639 18.175c-0.11155-0.5768-0.31654-1.1168-0.61378-1.6195-0.29775-0.50244-0.66507-0.93525-1.102-1.2981-0.43723-0.36302-0.93014-0.65134-1.4786-0.86563-0.54878-0.21361-1.1299-0.32101-1.7437-0.32101-0.61378 0-1.1952 0.1074-1.7437 0.32101-0.54878 0.21429-1.0417 0.50261-1.4786 0.86563-0.43723 0.36285-0.7998 0.79567-1.0881 1.2981-0.28844 0.50261-0.48818 1.0427-0.59973 1.6195h9.848zm-9.8759 1.7309c0.09293 0.59595 0.2881 1.1495 0.58585 1.6611 0.29741 0.51209 0.66473 0.95422 1.102 1.3262 0.43689 0.37268 0.93471 0.66591 1.4926 0.87952 0.55792 0.21412 1.1438 0.32101 1.7575 0.32101 0.68792 0 1.3296-0.12552 1.9249-0.37691 0.59499-0.25122 1.1251-0.60018 1.5903-1.0469 0.16724-0.1677 0.37189-0.25139 0.61378-0.25139 0.24138 0 0.4462 0.083683 0.61361 0.25139 0.16741 0.16754 0.2512 0.37251 0.2512 0.61424 0 0.24207-0.083789 0.44654-0.2512 0.61407-0.61361 0.68878-1.3068 1.1775-2.0783 1.466-0.77204 0.28849-1.6599 0.43281-2.6643 0.43281-0.93014 0-1.7993-0.16787-2.6085-0.50261-0.80895-0.33524-1.5204-0.80024-2.1342-1.3962-0.61378-0.59527-1.0976-1.3027-1.4507-2.1219-0.35361-0.8187-0.53016-1.7121-0.53016-2.6801 0-0.93051 0.17181-1.8009 0.51611-2.6104 0.34396-0.80973 0.81826-1.5168 1.4227-2.1219 0.6043-0.60458 1.3205-1.0889 2.1482-1.4517 0.8274-0.36302 1.7249-0.56274 2.6923-0.60035 0.87395 0 1.7157 0.17719 2.5248 0.53056 0.80895 0.3537 1.5204 0.83751 2.1342 1.4517 0.61378 0.61407 1.1062 1.3261 1.4786 2.1358 0.37172 0.80973 0.55792 1.6799 0.55792 2.6104 0 0.27917-0.093268 0.49329-0.27896 0.64219-0.1862 0.14907-0.38137 0.22327-0.58585 0.22327h-10.825z" stroke="#4A4A4A" stroke-width=".5"/>
                <path d="m64.768 8.8496c0-0.24173 0.083789-0.4467 0.25103-0.61407 0.16741-0.1677 0.37206-0.25139 0.61378-0.25139 0.24155 0 0.44654 0.083683 0.61378 0.25139 0.16741 0.16737 0.25103 0.37234 0.25103 0.61407v3.4061h1.8606c0.24392 0 0.4506 0.083852 0.6197 0.25139 0.1691 0.16754 0.25374 0.37251 0.25374 0.61424 0 0.24207-0.084635 0.4467-0.25374 0.61407-0.1691 0.1677-0.37578 0.25139-0.6197 0.25139h-1.8606v10.972c0 0.24224-0.082435 0.4467-0.24697 0.61407-0.16487 0.1677-0.36579 0.25156-0.60379 0.25156-0.23816 0-0.43943-0.083852-0.6043-0.25156-0.1647-0.16737-0.24663-0.37183-0.24663-0.61407v-10.972h-1.8605c-0.24409 0-0.45077-0.083683-0.61987-0.25139-0.1691-0.16737-0.25374-0.372-0.25374-0.61407 0-0.24173 0.083789-0.4467 0.2512-0.61424 0.16724-0.16754 0.37172-0.25139 0.61378-0.25139h1.8412v-3.4061z" fill="#4A4A4A"/>
                <path d="m64.768 8.8496c0-0.24173 0.083789-0.4467 0.25103-0.61407 0.16741-0.1677 0.37206-0.25139 0.61378-0.25139 0.24155 0 0.44654 0.083683 0.61378 0.25139 0.16741 0.16737 0.25103 0.37234 0.25103 0.61407v3.4061h1.8606c0.24392 0 0.4506 0.083852 0.6197 0.25139 0.1691 0.16754 0.25374 0.37251 0.25374 0.61424 0 0.24207-0.084635 0.4467-0.25374 0.61407-0.1691 0.1677-0.37578 0.25139-0.6197 0.25139h-1.8606v10.972c0 0.24224-0.082435 0.4467-0.24697 0.61407-0.16487 0.1677-0.36579 0.25156-0.60379 0.25156-0.23816 0-0.43943-0.083852-0.6043-0.25156-0.1647-0.16737-0.24663-0.37183-0.24663-0.61407v-10.972h-1.8605c-0.24409 0-0.45077-0.083683-0.61987-0.25139-0.1691-0.16737-0.25374-0.372-0.25374-0.61407 0-0.24173 0.083789-0.4467 0.2512-0.61424 0.16724-0.16754 0.37172-0.25139 0.61378-0.25139h1.8412v-3.4061z" stroke="#4A4A4A" stroke-width=".5"/>
                <path d="m70.236 13.121c0-0.24173 0.083789-0.4467 0.2512-0.61424 0.16741-0.16754 0.37189-0.25122 0.61361-0.25122 0.24172 0 0.44654 0.083683 0.61395 0.25122 0.16741 0.16754 0.25103 0.37251 0.25103 0.61424v1.3681c0.59499-0.65134 1.3112-1.1866 2.1482-1.6054 0.83688-0.41892 1.7479-0.62813 2.7339-0.62813 0.29741 0 0.53456 0.083683 0.71145 0.25122 0.17655 0.16754 0.26508 0.37251 0.26508 0.61424 0 0.24207-0.088529 0.4467-0.26508 0.61407-0.17689 0.1677-0.41404 0.25139-0.71145 0.25139-0.66964 0-1.2927 0.13044-1.8689 0.39097-0.57704 0.26087-1.0838 0.61407-1.5206 1.0608-0.4374 0.4467-0.79083 0.95897-1.0603 1.5356-0.26965 0.57714-0.41387 1.1822-0.43232 1.8148v6.17c0 0.24224-0.08362 0.4467-0.25103 0.61407-0.16741 0.16787-0.37223 0.25156-0.61395 0.25156-0.24172 0-0.4462-0.083683-0.61361-0.25156-0.16741-0.16737-0.2512-0.37183-0.2512-0.61407v-11.838z" fill="#4A4A4A"/>
                <path d="m70.236 13.121c0-0.24173 0.083789-0.4467 0.2512-0.61424 0.16741-0.16754 0.37189-0.25122 0.61361-0.25122 0.24172 0 0.44654 0.083683 0.61395 0.25122 0.16741 0.16754 0.25103 0.37251 0.25103 0.61424v1.3681c0.59499-0.65134 1.3112-1.1866 2.1482-1.6054 0.83688-0.41892 1.7479-0.62813 2.7339-0.62813 0.29741 0 0.53456 0.083683 0.71145 0.25122 0.17655 0.16754 0.26508 0.37251 0.26508 0.61424 0 0.24207-0.088529 0.4467-0.26508 0.61407-0.17689 0.1677-0.41404 0.25139-0.71145 0.25139-0.66964 0-1.2927 0.13044-1.8689 0.39097-0.57704 0.26087-1.0838 0.61407-1.5206 1.0608-0.4374 0.4467-0.79083 0.95897-1.0603 1.5356-0.26965 0.57714-0.41387 1.1822-0.43232 1.8148v6.17c0 0.24224-0.08362 0.4467-0.25103 0.61407-0.16741 0.16787-0.37223 0.25156-0.61395 0.25156-0.24172 0-0.4462-0.083683-0.61361-0.25156-0.16741-0.16737-0.2512-0.37183-0.2512-0.61407v-11.838z" stroke="#4A4A4A" stroke-width=".5"/>
                <path d="m88.956 18.175c-0.11138-0.5768-0.31637-1.1168-0.61361-1.6195-0.29792-0.50244-0.66523-0.93525-1.102-1.2981-0.4374-0.36302-0.93031-0.65134-1.4788-0.86563-0.54878-0.21361-1.1301-0.32101-1.7437-0.32101-0.61361 0-1.1951 0.1074-1.7437 0.32101-0.54878 0.21429-1.0417 0.50261-1.4784 0.86563-0.4374 0.36285-0.80014 0.79567-1.0881 1.2981-0.28861 0.50261-0.48835 1.0427-0.59973 1.6195h9.8478zm-9.8759 1.7309c0.09293 0.59595 0.28827 1.1495 0.58585 1.6611 0.29724 0.51209 0.6649 0.95422 1.102 1.3262 0.43672 0.37268 0.93454 0.66591 1.4926 0.87952 0.55809 0.21412 1.1439 0.32101 1.7575 0.32101 0.68809 0 1.3295-0.12552 1.9251-0.37691 0.59482-0.25122 1.1251-0.60018 1.5903-1.0469 0.16724-0.1677 0.37155-0.25139 0.61361-0.25139 0.24155 0 0.4462 0.083683 0.61361 0.25139 0.16758 0.16754 0.2512 0.37251 0.2512 0.61424 0 0.24207-0.08362 0.44654-0.2512 0.61407-0.61361 0.68878-1.3066 1.1775-2.0783 1.466-0.77188 0.28849-1.6599 0.43281-2.6643 0.43281-0.93031 0-1.7995-0.16787-2.6085-0.50261-0.80895-0.33524-1.5204-0.80024-2.134-1.3962-0.61395-0.59527-1.0977-1.3027-1.4508-2.1219-0.35344-0.8187-0.53033-1.7121-0.53033-2.6801 0-0.93051 0.17198-1.8009 0.51645-2.6104 0.34379-0.80973 0.81792-1.5168 1.4226-2.1219 0.60447-0.60458 1.3205-1.0889 2.1484-1.4517 0.82723-0.36302 1.7247-0.56274 2.6921-0.60035 0.87378 0 1.7159 0.17719 2.5248 0.53056 0.80911 0.3537 1.5206 0.83751 2.1342 1.4517 0.61395 0.61407 1.1062 1.3261 1.4784 2.1358 0.37189 0.80973 0.55809 1.6799 0.55809 2.6104 0 0.27917-0.093268 0.49329-0.27913 0.64219-0.18603 0.14907-0.38137 0.22327-0.58568 0.22327h-10.825z" fill="#4A4A4A"/>
                <path d="m88.956 18.175c-0.11138-0.5768-0.31637-1.1168-0.61361-1.6195-0.29792-0.50244-0.66523-0.93525-1.102-1.2981-0.4374-0.36302-0.93031-0.65134-1.4788-0.86563-0.54878-0.21361-1.1301-0.32101-1.7437-0.32101-0.61361 0-1.1951 0.1074-1.7437 0.32101-0.54878 0.21429-1.0417 0.50261-1.4784 0.86563-0.4374 0.36285-0.80014 0.79567-1.0881 1.2981-0.28861 0.50261-0.48835 1.0427-0.59973 1.6195h9.8478zm-9.8759 1.7309c0.09293 0.59595 0.28827 1.1495 0.58585 1.6611 0.29724 0.51209 0.6649 0.95422 1.102 1.3262 0.43672 0.37268 0.93454 0.66591 1.4926 0.87952 0.55809 0.21412 1.1439 0.32101 1.7575 0.32101 0.68809 0 1.3295-0.12552 1.9251-0.37691 0.59482-0.25122 1.1251-0.60018 1.5903-1.0469 0.16724-0.1677 0.37155-0.25139 0.61361-0.25139 0.24155 0 0.4462 0.083683 0.61361 0.25139 0.16758 0.16754 0.2512 0.37251 0.2512 0.61424 0 0.24207-0.08362 0.44654-0.2512 0.61407-0.61361 0.68878-1.3066 1.1775-2.0783 1.466-0.77188 0.28849-1.6599 0.43281-2.6643 0.43281-0.93031 0-1.7995-0.16787-2.6085-0.50261-0.80895-0.33524-1.5204-0.80024-2.134-1.3962-0.61395-0.59527-1.0977-1.3027-1.4508-2.1219-0.35344-0.8187-0.53033-1.7121-0.53033-2.6801 0-0.93051 0.17198-1.8009 0.51645-2.6104 0.34379-0.80973 0.81792-1.5168 1.4226-2.1219 0.60447-0.60458 1.3205-1.0889 2.1484-1.4517 0.82723-0.36302 1.7247-0.56274 2.6921-0.60035 0.87378 0 1.7159 0.17719 2.5248 0.53056 0.80911 0.3537 1.5206 0.83751 2.1342 1.4517 0.61395 0.61407 1.1062 1.3261 1.4784 2.1358 0.37189 0.80973 0.55809 1.6799 0.55809 2.6104 0 0.27917-0.093268 0.49329-0.27913 0.64219-0.18603 0.14907-0.38137 0.22327-0.58568 0.22327h-10.825z" stroke="#4A4A4A" stroke-width=".5"/>
                <path d="m91.857 13.149c0-0.24173 0.08362-0.4467 0.25086-0.61424 0.16741-0.16754 0.37206-0.25122 0.61361-0.25122 0.24172 0 0.44671 0.083683 0.61395 0.25122 0.16741 0.16754 0.25103 0.37251 0.25103 0.61424v7.6499c0 0.4467 0.08819 0.8702 0.26508 1.2702 0.17655 0.40063 0.4137 0.74959 0.71145 1.0472 0.29724 0.2978 0.64611 0.53039 1.0461 0.69775 0.39965 0.16754 0.82283 0.25139 1.2695 0.25139 0.44637 0 0.86447-0.083852 1.2553-0.25139 0.39051-0.16737 0.72973-0.3908 1.0183-0.66997 0.28793-0.27917 0.52034-0.6095 0.69723-0.99132 0.17689-0.38115 0.27439-0.78584 0.29318-1.2143v-7.7895c0-0.24173 0.08362-0.4467 0.25103-0.61424 0.16724-0.16754 0.37189-0.25122 0.61361-0.25122 0.24155 0 0.44654 0.083683 0.61394 0.25122 0.16724 0.16754 0.25086 0.37251 0.25086 0.61424v11.81c0 0.24224-0.08362 0.4467-0.25086 0.61407-0.16741 0.1677-0.3724 0.25139-0.61394 0.25139-0.24172 0-0.44637-0.083683-0.61361-0.25139-0.16741-0.16737-0.25103-0.37183-0.25103-0.61407v-0.36302c-0.42809 0.37251-0.92066 0.66997-1.4787 0.89341-0.55809 0.22327-1.1536 0.33507-1.7853 0.33507-0.68826 0-1.3393-0.12993-1.9529-0.39063-0.61395-0.2607-1.1488-0.61881-1.6042-1.075-0.45618-0.45602-0.81385-0.99132-1.074-1.6054-0.26085-0.61441-0.39051-1.2654-0.39051-1.9544v-7.6499z" fill="#4A4A4A"/>
                <path d="m91.857 13.149c0-0.24173 0.08362-0.4467 0.25086-0.61424 0.16741-0.16754 0.37206-0.25122 0.61361-0.25122 0.24172 0 0.44671 0.083683 0.61395 0.25122 0.16741 0.16754 0.25103 0.37251 0.25103 0.61424v7.6499c0 0.4467 0.08819 0.8702 0.26508 1.2702 0.17655 0.40063 0.4137 0.74959 0.71145 1.0472 0.29724 0.2978 0.64611 0.53039 1.0461 0.69775 0.39965 0.16754 0.82283 0.25139 1.2695 0.25139 0.44637 0 0.86447-0.083852 1.2553-0.25139 0.39051-0.16737 0.72973-0.3908 1.0183-0.66997 0.28793-0.27917 0.52034-0.6095 0.69723-0.99132 0.17689-0.38115 0.27439-0.78584 0.29318-1.2143v-7.7895c0-0.24173 0.08362-0.4467 0.25103-0.61424 0.16724-0.16754 0.37189-0.25122 0.61361-0.25122 0.24155 0 0.44654 0.083683 0.61394 0.25122 0.16724 0.16754 0.25086 0.37251 0.25086 0.61424v11.81c0 0.24224-0.08362 0.4467-0.25086 0.61407-0.16741 0.1677-0.3724 0.25139-0.61394 0.25139-0.24172 0-0.44637-0.083683-0.61361-0.25139-0.16741-0.16737-0.25103-0.37183-0.25103-0.61407v-0.36302c-0.42809 0.37251-0.92066 0.66997-1.4787 0.89341-0.55809 0.22327-1.1536 0.33507-1.7853 0.33507-0.68826 0-1.3393-0.12993-1.9529-0.39063-0.61395-0.2607-1.1488-0.61881-1.6042-1.075-0.45618-0.45602-0.81385-0.99132-1.074-1.6054-0.26085-0.61441-0.39051-1.2654-0.39051-1.9544v-7.6499z" stroke="#4A4A4A" stroke-width=".5"/>
                <path d="m105.5 8.8496c0-0.24173 0.083959-0.4467 0.2512-0.61407 0.16741-0.1677 0.37206-0.25139 0.61361-0.25139 0.24172 0 0.44671 0.083683 0.61394 0.25139 0.16741 0.16737 0.25103 0.37234 0.25103 0.61407v3.4061h1.8606c0.24392 0 0.4506 0.083852 0.61987 0.25139 0.16893 0.16754 0.25357 0.37251 0.25357 0.61424 0 0.24207-0.084635 0.4467-0.25357 0.61407-0.16927 0.1677-0.37595 0.25139-0.61987 0.25139h-1.8606v10.972c0 0.24224-0.082435 0.4467-0.24697 0.61407-0.16504 0.1677-0.36596 0.25156-0.60379 0.25156-0.238 0-0.43926-0.083852-0.6043-0.25156-0.1647-0.16737-0.24663-0.37183-0.24663-0.61407v-10.972h-1.8606c-0.24409 0-0.4506-0.083683-0.61953-0.25139-0.16927-0.16737-0.25391-0.372-0.25391-0.61407 0-0.24173 0.08362-0.4467 0.2512-0.61424 0.16724-0.16754 0.37155-0.25139 0.61361-0.25139h1.8412v-3.4061z" fill="#4A4A4A"/>
                <path d="m105.5 8.8496c0-0.24173 0.083959-0.4467 0.2512-0.61407 0.16741-0.1677 0.37206-0.25139 0.61361-0.25139 0.24172 0 0.44671 0.083683 0.61394 0.25139 0.16741 0.16737 0.25103 0.37234 0.25103 0.61407v3.4061h1.8606c0.24392 0 0.4506 0.083852 0.61987 0.25139 0.16893 0.16754 0.25357 0.37251 0.25357 0.61424 0 0.24207-0.084635 0.4467-0.25357 0.61407-0.16927 0.1677-0.37595 0.25139-0.61987 0.25139h-1.8606v10.972c0 0.24224-0.082435 0.4467-0.24697 0.61407-0.16504 0.1677-0.36596 0.25156-0.60379 0.25156-0.238 0-0.43926-0.083852-0.6043-0.25156-0.1647-0.16737-0.24663-0.37183-0.24663-0.61407v-10.972h-1.8606c-0.24409 0-0.4506-0.083683-0.61953-0.25139-0.16927-0.16737-0.25391-0.372-0.25391-0.61407 0-0.24173 0.08362-0.4467 0.2512-0.61424 0.16724-0.16754 0.37155-0.25139 0.61361-0.25139h1.8412v-3.4061z" stroke="#4A4A4A" stroke-width=".5"/>
                <path d="m109.14 25.046c0-0.21497 0.076003-0.3986 0.22784-0.55038 0.15133-0.15195 0.33448-0.22767 0.54979-0.22767 0.2148 0 0.39796 0.075721 0.54979 0.22767 0.15167 0.15178 0.2275 0.33541 0.2275 0.55038 0 0.21531-0.075833 0.3986-0.2275 0.55038-0.15184 0.15178-0.33499 0.22767-0.54979 0.22767-0.21531 0-0.39846-0.075891-0.54979-0.22767-0.15184-0.15178-0.22784-0.33507-0.22784-0.55038" fill="#4A4A4A"/>
                <path d="m109.14 25.046c0-0.21497 0.076003-0.3986 0.22784-0.55038 0.15133-0.15195 0.33448-0.22767 0.54979-0.22767 0.2148 0 0.39796 0.075721 0.54979 0.22767 0.15167 0.15178 0.2275 0.33541 0.2275 0.55038 0 0.21531-0.075833 0.3986-0.2275 0.55038-0.15184 0.15178-0.33499 0.22767-0.54979 0.22767-0.21531 0-0.39846-0.075891-0.54979-0.22767-0.15184-0.15178-0.22784-0.33507-0.22784-0.55038z" stroke="#4A4A4A" stroke-width=".5"/>
                <path d="m118.94 21.251c-0.025391-0.49329-0.12966-0.94863-0.31281-1.3662-0.18349-0.4174-0.42673-0.77805-0.7299-1.0816-0.3035-0.30356-0.65762-0.54089-1.062-0.71148-0.4049-0.17092-0.83434-0.2563-1.2893-0.2563-0.46803 0-0.91017 0.088596-1.3274 0.26562-0.41708 0.17736-0.78085 0.42079-1.0903 0.73062-0.3101 0.31017-0.55318 0.6737-0.7299 1.0911-0.17723 0.41757-0.26559 0.86055-0.26559 1.3283 0 0.46839 0.088359 0.90798 0.26559 1.3189 0.17672 0.4113 0.41979 0.77195 0.7299 1.0818 0.30943 0.31 0.67319 0.55343 1.0903 0.73045 0.41725 0.17736 0.85939 0.26579 1.3274 0.26579 0.46753 0 0.90695-0.088426 1.3178-0.26579 0.41065-0.17702 0.77103-0.42045 1.0808-0.73045 0.30943-0.30983 0.55284-0.67048 0.73006-1.0818 0.17689-0.41096 0.26542-0.85055 0.26542-1.3189zm0-6.9642c0-0.16432 0.056875-0.30356 0.17062-0.41757 0.11375-0.11384 0.25289-0.17075 0.41725-0.17075 0.16419 0 0.3035 0.056918 0.41708 0.17075 0.11375 0.11401 0.17062 0.25325 0.17062 0.41757v10.949c0 0.16449-0.056875 0.30373-0.17062 0.41757-0.11358 0.11384-0.25289 0.17075-0.41708 0.17075-0.16436 0-0.3035-0.056918-0.41725-0.17075-0.11375-0.11384-0.17062-0.25308-0.17062-0.41757v-0.89189l-0.17062 0.17092c-0.41725 0.40486-0.90391 0.72096-1.46 0.94863-0.55639 0.22784-1.1446 0.34185-1.7635 0.34185-0.64458 0-1.2453-0.1201-1.8014-0.36065-0.55639-0.24021-1.0402-0.56952-1.4508-0.98675-0.41082-0.41757-0.7365-0.90154-0.97618-1.4517-0.24036-0.55038-0.36038-1.1355-0.36038-1.7555 0-0.6322 0.12289-1.2268 0.36952-1.7836 0.24663-0.55648 0.57857-1.0437 0.99548-1.4612 0.41725-0.4174 0.90103-0.74959 1.4508-0.99624 0.54979-0.24664 1.1284-0.36997 1.735-0.36997 0.70772 0.02541 1.3525 0.20565 1.9339 0.54089 0.58128 0.33524 1.0808 0.73045 1.498 1.186v-4.08z" fill="#4A4A4A"/>
                <path d="m118.94 21.251c-0.025391-0.49329-0.12966-0.94863-0.31281-1.3662-0.18349-0.4174-0.42673-0.77805-0.7299-1.0816-0.3035-0.30356-0.65762-0.54089-1.062-0.71148-0.4049-0.17092-0.83434-0.2563-1.2893-0.2563-0.46803 0-0.91017 0.088596-1.3274 0.26562-0.41708 0.17736-0.78085 0.42079-1.0903 0.73062-0.3101 0.31017-0.55318 0.6737-0.7299 1.0911-0.17723 0.41757-0.26559 0.86055-0.26559 1.3283 0 0.46839 0.088359 0.90798 0.26559 1.3189 0.17672 0.4113 0.41979 0.77195 0.7299 1.0818 0.30943 0.31 0.67319 0.55343 1.0903 0.73045 0.41725 0.17736 0.85939 0.26579 1.3274 0.26579 0.46753 0 0.90695-0.088426 1.3178-0.26579 0.41065-0.17702 0.77103-0.42045 1.0808-0.73045 0.30943-0.30983 0.55284-0.67048 0.73006-1.0818 0.17689-0.41096 0.26542-0.85055 0.26542-1.3189zm0-6.9642c0-0.16432 0.056875-0.30356 0.17062-0.41757 0.11375-0.11384 0.25289-0.17075 0.41725-0.17075 0.16419 0 0.3035 0.056918 0.41708 0.17075 0.11375 0.11401 0.17062 0.25325 0.17062 0.41757v10.949c0 0.16449-0.056875 0.30373-0.17062 0.41757-0.11358 0.11384-0.25289 0.17075-0.41708 0.17075-0.16436 0-0.3035-0.056918-0.41725-0.17075-0.11375-0.11384-0.17062-0.25308-0.17062-0.41757v-0.89189l-0.17062 0.17092c-0.41725 0.40486-0.90391 0.72096-1.46 0.94863-0.55639 0.22784-1.1446 0.34185-1.7635 0.34185-0.64458 0-1.2453-0.1201-1.8014-0.36065-0.55639-0.24021-1.0402-0.56952-1.4508-0.98675-0.41082-0.41757-0.7365-0.90154-0.97618-1.4517-0.24036-0.55038-0.36038-1.1355-0.36038-1.7555 0-0.6322 0.12289-1.2268 0.36952-1.7836 0.24663-0.55648 0.57857-1.0437 0.99548-1.4612 0.41725-0.4174 0.90103-0.74959 1.4508-0.99624 0.54979-0.24664 1.1284-0.36997 1.735-0.36997 0.70772 0.02541 1.3525 0.20565 1.9339 0.54089 0.58128 0.33524 1.0808 0.73045 1.498 1.186v-4.08z" stroke="#4A4A4A" stroke-width=".5"/>
                <path d="m128.77 20.625c-0.076003-0.39199-0.21514-0.75908-0.41725-1.1006-0.20228-0.34168-0.45229-0.63575-0.74919-0.8824-0.2969-0.24681-0.63206-0.44264-1.005-0.58832-0.3729-0.14534-0.76764-0.21819-1.1849-0.21819-0.41725 0-0.81233 0.072842-1.1852 0.21819-0.3729 0.14568-0.70823 0.34151-1.0051 0.58832-0.29673 0.24664-0.54353 0.54072-0.73954 0.8824-0.19602 0.34151-0.3316 0.7086-0.4076 1.1006h6.6938zm-6.7126 1.1766c0.063138 0.40486 0.19602 0.7811 0.3983 1.1289 0.20211 0.34811 0.45161 0.64846 0.74885 0.90154 0.2969 0.25308 0.6351 0.4523 1.0143 0.59764 0.3795 0.14568 0.77763 0.21836 1.1949 0.21836 0.46753 0 0.90357-0.085377 1.3081-0.25613 0.40473-0.17109 0.76476-0.40791 1.0808-0.71164 0.11409-0.11384 0.25289-0.17092 0.41725-0.17092s0.3035 0.057088 0.41725 0.17092c0.11375 0.11384 0.17062 0.25308 0.17062 0.4174 0 0.16449-0.056875 0.30356-0.17062 0.4174-0.41725 0.46839-0.888 0.80024-1.4127 0.99623-0.52457 0.19633-1.128 0.29442-1.8107 0.29442-0.6324 0-1.223-0.11401-1.7731-0.34185-0.54979-0.22767-1.0334-0.54377-1.4507-0.9488-0.41692-0.40469-0.74581-0.88528-0.98583-1.4421-0.24036-0.55648-0.36038-1.1638-0.36038-1.8219 0-0.63237 0.11663-1.2239 0.35073-1.7741 0.23376-0.55038 0.55605-1.031 0.96704-1.4423 0.41065-0.41096 0.89764-0.7401 1.4603-0.98675 0.56232-0.24664 1.1724-0.3825 1.8296-0.40791 0.59397 0 1.1663 0.12027 1.7161 0.36048 0.55013 0.24038 1.0336 0.56918 1.4508 0.98675 0.41708 0.4174 0.75173 0.90137 1.005 1.4517 0.25255 0.55021 0.37917 1.1417 0.37917 1.7743 0 0.18956-0.063477 0.33524-0.18975 0.43637-0.12628 0.1013-0.25915 0.15195-0.39796 0.15195h-7.3574z" fill="#4A4A4A"/>
                <path d="m128.77 20.625c-0.076003-0.39199-0.21514-0.75908-0.41725-1.1006-0.20228-0.34168-0.45229-0.63575-0.74919-0.8824-0.2969-0.24681-0.63206-0.44264-1.005-0.58832-0.3729-0.14534-0.76764-0.21819-1.1849-0.21819-0.41725 0-0.81233 0.072842-1.1852 0.21819-0.3729 0.14568-0.70823 0.34151-1.0051 0.58832-0.29673 0.24664-0.54353 0.54072-0.73954 0.8824-0.19602 0.34151-0.3316 0.7086-0.4076 1.1006h6.6938zm-6.7126 1.1766c0.063138 0.40486 0.19602 0.7811 0.3983 1.1289 0.20211 0.34811 0.45161 0.64846 0.74885 0.90154 0.2969 0.25308 0.6351 0.4523 1.0143 0.59764 0.3795 0.14568 0.77763 0.21836 1.1949 0.21836 0.46753 0 0.90357-0.085377 1.3081-0.25613 0.40473-0.17109 0.76476-0.40791 1.0808-0.71164 0.11409-0.11384 0.25289-0.17092 0.41725-0.17092s0.3035 0.057088 0.41725 0.17092c0.11375 0.11384 0.17062 0.25308 0.17062 0.4174 0 0.16449-0.056875 0.30356-0.17062 0.4174-0.41725 0.46839-0.888 0.80024-1.4127 0.99623-0.52457 0.19633-1.128 0.29442-1.8107 0.29442-0.6324 0-1.223-0.11401-1.7731-0.34185-0.54979-0.22767-1.0334-0.54377-1.4507-0.9488-0.41692-0.40469-0.74581-0.88528-0.98583-1.4421-0.24036-0.55648-0.36038-1.1638-0.36038-1.8219 0-0.63237 0.11663-1.2239 0.35073-1.7741 0.23376-0.55038 0.55605-1.031 0.96704-1.4423 0.41065-0.41096 0.89764-0.7401 1.4603-0.98675 0.56232-0.24664 1.1724-0.3825 1.8296-0.40791 0.59397 0 1.1663 0.12027 1.7161 0.36048 0.55013 0.24038 1.0336 0.56918 1.4508 0.98675 0.41708 0.4174 0.75173 0.90137 1.005 1.4517 0.25255 0.55021 0.37917 1.1417 0.37917 1.7743 0 0.18956-0.063477 0.33524-0.18975 0.43637-0.12628 0.1013-0.25915 0.15195-0.39796 0.15195h-7.3574z" stroke="#4A4A4A" stroke-width=".5"/>
            </g>
        </g>
    </g>
</svg>