<svg width="127" height="31" viewBox="0 0 127 31" fill="none" xmlns="http://www.w3.org/2000/svg" id="betreutAtLogo">
<path fill-rule="evenodd" clip-rule="evenodd" d="M5.6757 14.978C5.6757 14.978 11.1525 -6.16399 29.8827 22.1912C29.8827 22.1912 15.2637 1.98421 5.6757 14.978" fill="#4A4A4A"/>
<path fill-rule="evenodd" clip-rule="evenodd" d="M14.274 11.478C14.274 11.478 15.8692 11.6245 16.2898 11.9142C16.2898 11.9142 9.00729 21.8366 0.707794 23.5272C0.707794 23.5272 4.20879 21.7302 14.2738 11.4772" fill="#4A4A4A"/>
<path fill-rule="evenodd" clip-rule="evenodd" d="M17.57 7.74291C17.57 7.74291 18.5291 8.16234 19.15 8.72424C19.15 8.72424 27.3525 0.602941 34.35 0.600341C34.35 0.600341 29.1363 -3.07056 17.57 7.74284" fill="#4A4A4A"/>
<path fill-rule="evenodd" clip-rule="evenodd" d="M20.676 9.81479C20.676 9.81479 21.3986 10.4155 22.038 11.1232C22.038 11.1232 28.8418 3.36508 36.53 3.16278C36.53 3.16278 31.7515 -0.490115 20.676 9.81479" fill="#4A4A4A"/>
<path fill-rule="evenodd" clip-rule="evenodd" d="M25.892 15.266L26.7504 16.3581C26.7504 16.3581 27.9075 14.2318 31.1362 12.5949C31.1362 12.5949 28.0837 12.4482 25.892 15.266" fill="#4A4A4A"/>
<path fill-rule="evenodd" clip-rule="evenodd" d="M23.59 12.623L24.6796 13.8225C24.6796 13.8225 27.2523 10.6349 33.5056 7.77061C33.5056 7.77061 28.4811 7.44384 23.5901 12.623" fill="#4A4A4A"/>
<path fill-rule="evenodd" clip-rule="evenodd" d="M24.408 17.312L25.4257 18.2386C25.4257 18.2386 19.1957 30.6686 6.70171 30.8336C6.70171 30.8336 17.9857 27.7494 24.4077 17.3116" fill="#4A4A4A"/>
<path fill-rule="evenodd" clip-rule="evenodd" d="M22.895 15.902L21.629 14.912C12.8244 26.688 0 30.342 0 30.342C0 30.342 14.174 29.0154 22.895 15.902" fill="#4A4A4A"/>
<path fill-rule="evenodd" clip-rule="evenodd" d="M18.306 12.786L19.7771 13.604C19.7771 13.604 13.3391 23.771 3.0511 27.071C3.0511 27.071 14.6431 18.4306 18.3061 12.786" fill="#4A4A4A"/>
<path fill-rule="evenodd" clip-rule="evenodd" d="M38.743 16.9449V24.5954H42.8753C43.3813 24.5954 43.8592 24.4902 44.309 24.2791C44.7588 24.0683 45.1523 23.7901 45.4897 23.445C45.827 23.0998 46.0941 22.6971 46.2909 22.237C46.4876 21.7768 46.586 21.2878 46.586 20.7702C46.586 20.2525 46.4877 19.7591 46.2909 19.289C46.0941 18.8193 45.827 18.4117 45.4897 18.0666C45.1524 17.7214 44.7588 17.4482 44.309 17.2469C43.8592 17.0455 43.3813 16.9449 42.8753 16.9449H38.743V16.9449ZM38.743 9.78327V15.1617H42.8753C43.2311 15.1617 43.5684 15.0853 43.8873 14.9315C44.2058 14.7783 44.482 14.577 44.7166 14.3275C44.9507 14.0786 45.1334 13.791 45.2648 13.4647C45.3956 13.1389 45.4615 12.8032 45.4615 12.458C45.4615 12.094 45.3956 11.7534 45.2648 11.4369C45.1334 11.1206 44.9507 10.8379 44.7166 10.5885C44.482 10.3396 44.2058 10.1427 43.8873 9.99892C43.5684 9.85511 43.2311 9.78321 42.8753 9.78321H38.743V9.78327ZM37.0001 8.89166C37.0001 8.64264 37.0844 8.43142 37.2531 8.25891C37.4218 8.08634 37.6278 8.00006 37.8715 8.00006H42.8753C43.4749 8.00006 44.0371 8.11505 44.562 8.34514C45.0865 8.57529 45.5459 8.89166 45.9394 9.29432C46.333 9.69698 46.6466 10.1715 46.8812 10.7179C47.1153 11.2644 47.2325 11.8445 47.2325 12.458C47.2325 13.1483 47.0823 13.7909 46.7828 14.385C46.4828 14.9796 46.0892 15.4878 45.6021 15.9093C46.4265 16.3889 47.0872 17.0553 47.5839 17.9082C48.0802 18.7617 48.3288 19.7157 48.3288 20.77C48.3288 21.5371 48.1882 22.2611 47.9071 22.9415C47.626 23.6223 47.2369 24.2168 46.7405 24.7247C46.2438 25.2331 45.6626 25.6357 44.9976 25.9327C44.3322 26.2302 43.6245 26.3785 42.8752 26.3785H37.8714C37.6277 26.3785 37.4217 26.2922 37.253 26.1196C37.0843 25.9471 37 25.7363 37 25.4869V8.89186L37.0001 8.89166Z" fill="#4A4A4A"/>
<path fill-rule="evenodd" clip-rule="evenodd" d="M38.743 16.9449V24.5954H42.8753C43.3813 24.5954 43.8592 24.4902 44.309 24.2791C44.7588 24.0683 45.1523 23.7901 45.4897 23.445C45.827 23.0998 46.0941 22.6971 46.2909 22.237C46.4876 21.7768 46.586 21.2878 46.586 20.7702C46.586 20.2525 46.4877 19.7591 46.2909 19.289C46.0941 18.8193 45.827 18.4117 45.4897 18.0666C45.1524 17.7214 44.7588 17.4482 44.309 17.2469C43.8592 17.0455 43.3813 16.9449 42.8753 16.9449H38.743V16.9449ZM38.743 9.78327V15.1617H42.8753C43.2311 15.1617 43.5684 15.0853 43.8873 14.9315C44.2058 14.7783 44.482 14.577 44.7166 14.3275C44.9507 14.0786 45.1334 13.791 45.2648 13.4647C45.3956 13.1389 45.4615 12.8032 45.4615 12.458C45.4615 12.094 45.3956 11.7534 45.2648 11.4369C45.1334 11.1206 44.9507 10.8379 44.7166 10.5885C44.482 10.3396 44.2058 10.1427 43.8873 9.99892C43.5684 9.85511 43.2311 9.78321 42.8753 9.78321H38.743V9.78327ZM37.0001 8.89166C37.0001 8.64264 37.0844 8.43142 37.2531 8.25891C37.4218 8.08634 37.6278 8.00006 37.8715 8.00006H42.8753C43.4749 8.00006 44.0371 8.11505 44.562 8.34514C45.0865 8.57529 45.5459 8.89166 45.9394 9.29432C46.333 9.69698 46.6466 10.1715 46.8812 10.7179C47.1153 11.2644 47.2325 11.8445 47.2325 12.458C47.2325 13.1483 47.0823 13.7909 46.7828 14.385C46.4828 14.9796 46.0892 15.4878 45.6021 15.9093C46.4265 16.3889 47.0872 17.0553 47.5839 17.9082C48.0802 18.7617 48.3288 19.7157 48.3288 20.77C48.3288 21.5371 48.1882 22.2611 47.9071 22.9415C47.626 23.6223 47.2369 24.2168 46.7405 24.7247C46.2438 25.2331 45.6626 25.6357 44.9976 25.9327C44.3322 26.2302 43.6245 26.3785 42.8752 26.3785H37.8714C37.6277 26.3785 37.4217 26.2922 37.253 26.1196C37.0843 25.9471 37 25.7363 37 25.4869V8.89186L37.0001 8.89166Z" stroke="#4A4A4A" stroke-width="0.5"/>
<path fill-rule="evenodd" clip-rule="evenodd" d="M61.2881 18.498C61.1757 17.9039 60.9692 17.3476 60.6697 16.8298C60.3697 16.312 59.9994 15.8662 59.5593 15.4924C59.1187 15.1185 58.6219 14.8214 58.0694 14.6007C57.5164 14.3805 56.9309 14.27 56.3125 14.27C55.6941 14.27 55.1081 14.3805 54.5556 14.6007C54.0026 14.8214 53.5058 15.1185 53.0657 15.4924C52.6251 15.8663 52.2597 16.3121 51.9694 16.8298C51.6786 17.3475 51.4774 17.9039 51.365 18.498H61.2882H61.2881ZM51.3368 20.2812C51.4304 20.895 51.6271 21.4654 51.9271 21.9925C52.2267 22.52 52.597 22.9753 53.0375 23.3587C53.4776 23.7424 53.9792 24.0444 54.5414 24.2646C55.1036 24.4853 55.694 24.5954 56.3124 24.5954C57.0055 24.5954 57.6521 24.466 58.2521 24.2071C58.8517 23.9483 59.3858 23.5888 59.8544 23.1285C60.0231 22.956 60.2291 22.8697 60.4729 22.8697C60.7162 22.8697 60.9226 22.956 61.0913 23.1285C61.26 23.3011 61.3443 23.5123 61.3443 23.7613C61.3443 24.0107 61.26 24.2215 61.0913 24.394C60.4729 25.1036 59.7745 25.6069 58.997 25.904C58.2191 26.2015 57.3244 26.3498 56.3124 26.3498C55.3751 26.3498 54.4992 26.1773 53.684 25.8322C52.8688 25.487 52.1519 25.0079 51.5335 24.3941C50.9151 23.7806 50.4275 23.0522 50.0717 22.2082C49.7155 21.3647 49.5376 20.4443 49.5376 19.4471C49.5376 18.4885 49.7107 17.592 50.0577 16.7579C50.4042 15.9238 50.8821 15.1953 51.4914 14.572C52.1001 13.9491 52.8218 13.4504 53.656 13.0764C54.4896 12.7025 55.3941 12.4967 56.3687 12.458C57.2493 12.458 58.0975 12.6405 58.9128 13.0045C59.728 13.3689 60.4449 13.8673 61.0633 14.5001C61.6817 15.1328 62.1781 15.8663 62.5532 16.7004C62.9278 17.5345 63.1154 18.431 63.1154 19.3896C63.1154 19.6772 63.0214 19.8978 62.8343 20.0511C62.6467 20.2048 62.4499 20.2812 62.2439 20.2812H51.3369L51.3368 20.2812Z" fill="#4A4A4A"/>
<path fill-rule="evenodd" clip-rule="evenodd" d="M61.2881 18.498C61.1757 17.9039 60.9692 17.3476 60.6697 16.8298C60.3697 16.312 59.9994 15.8662 59.5593 15.4924C59.1187 15.1185 58.6219 14.8214 58.0694 14.6007C57.5164 14.3805 56.9309 14.27 56.3125 14.27C55.6941 14.27 55.1081 14.3805 54.5556 14.6007C54.0026 14.8214 53.5058 15.1185 53.0657 15.4924C52.6251 15.8663 52.2597 16.3121 51.9694 16.8298C51.6786 17.3475 51.4774 17.9039 51.365 18.498H61.2882H61.2881ZM51.3368 20.2812C51.4304 20.895 51.6271 21.4654 51.9271 21.9925C52.2267 22.52 52.597 22.9753 53.0375 23.3587C53.4776 23.7424 53.9792 24.0444 54.5414 24.2646C55.1036 24.4853 55.694 24.5954 56.3124 24.5954C57.0055 24.5954 57.6521 24.466 58.2521 24.2071C58.8517 23.9483 59.3858 23.5888 59.8544 23.1285C60.0231 22.956 60.2291 22.8697 60.4729 22.8697C60.7162 22.8697 60.9226 22.956 61.0913 23.1285C61.26 23.3011 61.3443 23.5123 61.3443 23.7613C61.3443 24.0107 61.26 24.2215 61.0913 24.394C60.4729 25.1036 59.7745 25.6069 58.997 25.904C58.2191 26.2015 57.3244 26.3498 56.3124 26.3498C55.3751 26.3498 54.4992 26.1773 53.684 25.8322C52.8688 25.487 52.1519 25.0079 51.5335 24.3941C50.9151 23.7806 50.4275 23.0522 50.0717 22.2082C49.7155 21.3647 49.5376 20.4443 49.5376 19.4471C49.5376 18.4885 49.7107 17.592 50.0577 16.7579C50.4042 15.9238 50.8821 15.1953 51.4914 14.572C52.1001 13.9491 52.8218 13.4504 53.656 13.0764C54.4896 12.7025 55.3941 12.4967 56.3687 12.458C57.2493 12.458 58.0975 12.6405 58.9128 13.0045C59.728 13.3689 60.4449 13.8673 61.0633 14.5001C61.6817 15.1328 62.1781 15.8663 62.5532 16.7004C62.9278 17.5345 63.1154 18.431 63.1154 19.3896C63.1154 19.6772 63.0214 19.8978 62.8343 20.0511C62.6467 20.2048 62.4499 20.2812 62.2439 20.2812H51.3369L51.3368 20.2812Z" stroke="#4A4A4A" stroke-width="0.5"/>
<path fill-rule="evenodd" clip-rule="evenodd" d="M65.449 8.89163C65.449 8.64261 65.5333 8.43145 65.7021 8.25888C65.8706 8.08631 66.0767 8.00003 66.3205 8.00003C66.5638 8.00003 66.7702 8.08631 66.9389 8.25888C67.1076 8.43145 67.1919 8.64261 67.1919 8.89163V12.4005H69.0666C69.3126 12.4005 69.5208 12.4868 69.6911 12.6594C69.8617 12.832 69.9468 13.0432 69.9468 13.2921C69.9468 13.5416 69.8617 13.7523 69.6911 13.9249C69.5208 14.0975 69.3126 14.1837 69.0666 14.1837H67.1919V25.4867C67.1919 25.7362 67.1089 25.9469 66.9428 26.1194C66.7769 26.2921 66.5743 26.3783 66.3345 26.3783C66.0946 26.3783 65.8918 26.2921 65.7258 26.1194C65.5597 25.9469 65.4771 25.7362 65.4771 25.4867V14.1837H63.6024C63.3564 14.1837 63.1482 14.0974 62.9778 13.9249C62.8074 13.7523 62.7222 13.5415 62.7222 13.2921C62.7222 13.0432 62.8065 12.832 62.9752 12.6594C63.1439 12.4868 63.3499 12.4005 63.5936 12.4005H65.4489V8.89163H65.449Z" fill="#4A4A4A"/>
<path fill-rule="evenodd" clip-rule="evenodd" d="M65.449 8.89163C65.449 8.64261 65.5333 8.43145 65.7021 8.25888C65.8706 8.08631 66.0767 8.00003 66.3205 8.00003C66.5638 8.00003 66.7702 8.08631 66.9389 8.25888C67.1076 8.43145 67.1919 8.64261 67.1919 8.89163V12.4005H69.0666C69.3126 12.4005 69.5208 12.4868 69.6911 12.6594C69.8617 12.832 69.9468 13.0432 69.9468 13.2921C69.9468 13.5416 69.8617 13.7523 69.6911 13.9249C69.5208 14.0975 69.3126 14.1837 69.0666 14.1837H67.1919V25.4867C67.1919 25.7362 67.1089 25.9469 66.9428 26.1194C66.7769 26.2921 66.5743 26.3783 66.3345 26.3783C66.0946 26.3783 65.8918 26.2921 65.7258 26.1194C65.5597 25.9469 65.4771 25.7362 65.4771 25.4867V14.1837H63.6024C63.3564 14.1837 63.1482 14.0974 62.9778 13.9249C62.8074 13.7523 62.7222 13.5415 62.7222 13.2921C62.7222 13.0432 62.8065 12.832 62.9752 12.6594C63.1439 12.4868 63.3499 12.4005 63.5936 12.4005H65.4489V8.89163H65.449Z" stroke="#4A4A4A" stroke-width="0.5"/>
<path fill-rule="evenodd" clip-rule="evenodd" d="M70.959 13.2921C70.959 13.0431 71.0433 12.8319 71.212 12.6594C71.3807 12.4868 71.5867 12.4005 71.8304 12.4005C72.0738 12.4005 72.2802 12.4868 72.4489 12.6594C72.6175 12.8319 72.7019 13.0432 72.7019 13.2921V14.7014C73.3015 14.0305 74.023 13.479 74.8664 13.0476C75.7098 12.6162 76.6278 12.4005 77.6213 12.4005C77.9208 12.4005 78.1599 12.4868 78.3382 12.6594C78.516 12.832 78.6052 13.0432 78.6052 13.2921C78.6052 13.5416 78.516 13.7523 78.3382 13.9249C78.1599 14.0975 77.9209 14.1837 77.6213 14.1837C76.9466 14.1837 76.3185 14.3181 75.7379 14.5864C75.1568 14.8551 74.646 15.2191 74.2058 15.6793C73.7653 16.1395 73.4091 16.6671 73.1376 17.2612C72.8658 17.8557 72.7204 18.4791 72.702 19.1307V25.487C72.702 25.7364 72.6176 25.9472 72.4489 26.1197C72.2802 26.2923 72.0738 26.3786 71.8305 26.3786C71.5867 26.3786 71.3807 26.2923 71.212 26.1197C71.0434 25.9472 70.959 25.7364 70.959 25.487V13.292L70.959 13.2921Z" fill="#4A4A4A"/>
<path fill-rule="evenodd" clip-rule="evenodd" d="M70.959 13.2921C70.959 13.0431 71.0433 12.8319 71.212 12.6594C71.3807 12.4868 71.5867 12.4005 71.8304 12.4005C72.0738 12.4005 72.2802 12.4868 72.4489 12.6594C72.6175 12.8319 72.7019 13.0432 72.7019 13.2921V14.7014C73.3015 14.0305 74.023 13.479 74.8664 13.0476C75.7098 12.6162 76.6278 12.4005 77.6213 12.4005C77.9208 12.4005 78.1599 12.4868 78.3382 12.6594C78.516 12.832 78.6052 13.0432 78.6052 13.2921C78.6052 13.5416 78.516 13.7523 78.3382 13.9249C78.1599 14.0975 77.9209 14.1837 77.6213 14.1837C76.9466 14.1837 76.3185 14.3181 75.7379 14.5864C75.1568 14.8551 74.646 15.2191 74.2058 15.6793C73.7653 16.1395 73.4091 16.6671 73.1376 17.2612C72.8658 17.8557 72.7204 18.4791 72.702 19.1307V25.487C72.702 25.7364 72.6176 25.9472 72.4489 26.1197C72.2802 26.2923 72.0738 26.3786 71.8305 26.3786C71.5867 26.3786 71.3807 26.2923 71.212 26.1197C71.0434 25.9472 70.959 25.7364 70.959 25.487V13.292L70.959 13.2921Z" stroke="#4A4A4A" stroke-width="0.5"/>
<path fill-rule="evenodd" clip-rule="evenodd" d="M89.821 18.498C89.7085 17.9039 89.5021 17.3476 89.2026 16.8298C88.9025 16.3121 88.5322 15.8663 88.0922 15.4924C87.6516 15.1185 87.1548 14.8214 86.6024 14.6008C86.0494 14.3806 85.4639 14.27 84.8455 14.27C84.2269 14.27 83.641 14.3806 83.0886 14.6008C82.5356 14.8214 82.0388 15.1185 81.5987 15.4924C81.1582 15.8663 80.7927 16.3121 80.5023 16.8298C80.2116 17.3475 80.0104 17.9039 79.8979 18.498H89.8211H89.821ZM79.8697 20.2812C79.9633 20.8951 80.1601 21.4654 80.46 21.9925C80.7596 22.5201 81.1299 22.9753 81.5704 23.3587C82.0105 23.7425 82.5122 24.0445 83.0742 24.2647C83.6365 24.4853 84.2268 24.5954 84.8453 24.5954C85.5384 24.5954 86.1849 24.466 86.785 24.2072C87.3846 23.9483 87.9186 23.5888 88.3873 23.1286C88.556 22.956 88.762 22.8697 89.0057 22.8697C89.2491 22.8697 89.4555 22.956 89.6242 23.1286C89.7928 23.3011 89.8771 23.5123 89.8771 23.7613C89.8771 24.0107 89.7928 24.2215 89.6242 24.3941C89.0057 25.1037 88.3074 25.607 87.5299 25.9041C86.752 26.2016 85.8574 26.3499 84.8454 26.3499C83.908 26.3499 83.0322 26.1773 82.217 25.8322C81.4017 25.487 80.6849 25.008 80.0665 24.3941C79.448 23.7807 78.9604 23.0522 78.6048 22.2082C78.2485 21.3647 78.0706 20.4443 78.0706 19.4471C78.0706 18.4885 78.2437 17.592 78.5907 16.7579C78.9372 15.9238 79.4151 15.1953 80.0243 14.572C80.6331 13.9491 81.3548 13.4504 82.1889 13.0764C83.0226 12.7025 83.927 12.4967 84.9016 12.458C85.7822 12.458 86.6305 12.6405 87.4457 13.0045C88.2609 13.369 88.9778 13.8673 89.5962 14.5001C90.2146 15.1329 90.711 15.8663 91.0861 16.7004C91.4607 17.5345 91.6482 18.431 91.6482 19.3896C91.6482 19.6772 91.5543 19.8979 91.3671 20.0511C91.1796 20.2048 90.9828 20.2812 90.7768 20.2812H79.8698L79.8697 20.2812Z" fill="#4A4A4A"/>
<path fill-rule="evenodd" clip-rule="evenodd" d="M89.821 18.498C89.7085 17.9039 89.5021 17.3476 89.2026 16.8298C88.9025 16.3121 88.5322 15.8663 88.0922 15.4924C87.6516 15.1185 87.1548 14.8214 86.6024 14.6008C86.0494 14.3806 85.4639 14.27 84.8455 14.27C84.2269 14.27 83.641 14.3806 83.0886 14.6008C82.5356 14.8214 82.0388 15.1185 81.5987 15.4924C81.1582 15.8663 80.7927 16.3121 80.5023 16.8298C80.2116 17.3475 80.0104 17.9039 79.8979 18.498H89.8211H89.821ZM79.8697 20.2812C79.9633 20.8951 80.1601 21.4654 80.46 21.9925C80.7596 22.5201 81.1299 22.9753 81.5704 23.3587C82.0105 23.7425 82.5122 24.0445 83.0742 24.2647C83.6365 24.4853 84.2268 24.5954 84.8453 24.5954C85.5384 24.5954 86.1849 24.466 86.785 24.2072C87.3846 23.9483 87.9186 23.5888 88.3873 23.1286C88.556 22.956 88.762 22.8697 89.0057 22.8697C89.2491 22.8697 89.4555 22.956 89.6242 23.1286C89.7928 23.3011 89.8771 23.5123 89.8771 23.7613C89.8771 24.0107 89.7928 24.2215 89.6242 24.3941C89.0057 25.1037 88.3074 25.607 87.5299 25.9041C86.752 26.2016 85.8574 26.3499 84.8454 26.3499C83.908 26.3499 83.0322 26.1773 82.217 25.8322C81.4017 25.487 80.6849 25.008 80.0665 24.3941C79.448 23.7807 78.9604 23.0522 78.6048 22.2082C78.2485 21.3647 78.0706 20.4443 78.0706 19.4471C78.0706 18.4885 78.2437 17.592 78.5907 16.7579C78.9372 15.9238 79.4151 15.1953 80.0243 14.572C80.6331 13.9491 81.3548 13.4504 82.1889 13.0764C83.0226 12.7025 83.927 12.4967 84.9016 12.458C85.7822 12.458 86.6305 12.6405 87.4457 13.0045C88.2609 13.369 88.9778 13.8673 89.5962 14.5001C90.2146 15.1329 90.711 15.8663 91.0861 16.7004C91.4607 17.5345 91.6482 18.431 91.6482 19.3896C91.6482 19.6772 91.5543 19.8979 91.3671 20.0511C91.1796 20.2048 90.9828 20.2812 90.7768 20.2812H79.8698L79.8697 20.2812Z" stroke="#4A4A4A" stroke-width="0.5"/>
<path fill-rule="evenodd" clip-rule="evenodd" d="M92.745 13.3209C92.745 13.0719 92.8293 12.8608 92.998 12.6882C93.1667 12.5156 93.3727 12.4293 93.6164 12.4293C93.8598 12.4293 94.0662 12.5156 94.2349 12.6882C94.4036 12.8608 94.4879 13.0719 94.4879 13.3209V21.2015C94.4879 21.6617 94.5766 22.0981 94.7549 22.5101C94.9328 22.9227 95.1717 23.2822 95.4718 23.5887C95.7713 23.8956 96.1227 24.1352 96.5259 24.3077C96.9287 24.4803 97.3553 24.5666 97.805 24.5666C98.2548 24.5666 98.6764 24.4803 99.0699 24.3077C99.4634 24.1352 99.8052 23.9051 100.096 23.6175C100.386 23.3299 100.62 22.9897 100.799 22.5965C100.977 22.2037 101.075 21.7866 101.094 21.3454V13.3209C101.094 13.0719 101.178 12.8607 101.347 12.6881C101.516 12.5155 101.722 12.4293 101.965 12.4293C102.209 12.4293 102.415 12.5155 102.584 12.6881C102.752 12.8607 102.837 13.0719 102.837 13.3209V25.4869C102.837 25.7363 102.752 25.9471 102.584 26.1196C102.415 26.2922 102.209 26.3785 101.965 26.3785C101.722 26.3785 101.516 26.2922 101.347 26.1196C101.178 25.9471 101.094 25.7363 101.094 25.4869V25.113C100.663 25.4968 100.166 25.8032 99.6041 26.0334C99.0418 26.2634 98.4419 26.3785 97.805 26.3785C97.1114 26.3785 96.4557 26.2445 95.8372 25.9758C95.2188 25.7075 94.6798 25.3386 94.2209 24.8685C93.7614 24.3989 93.4007 23.8475 93.1386 23.2147C92.876 22.582 92.745 21.911 92.745 21.2014V13.3208L92.745 13.3209Z" fill="#4A4A4A"/>
<path fill-rule="evenodd" clip-rule="evenodd" d="M92.745 13.3209C92.745 13.0719 92.8293 12.8608 92.998 12.6882C93.1667 12.5156 93.3727 12.4293 93.6164 12.4293C93.8598 12.4293 94.0662 12.5156 94.2349 12.6882C94.4036 12.8608 94.4879 13.0719 94.4879 13.3209V21.2015C94.4879 21.6617 94.5766 22.0981 94.7549 22.5101C94.9328 22.9227 95.1717 23.2822 95.4718 23.5887C95.7713 23.8956 96.1227 24.1352 96.5259 24.3077C96.9287 24.4803 97.3553 24.5666 97.805 24.5666C98.2548 24.5666 98.6764 24.4803 99.0699 24.3077C99.4634 24.1352 99.8052 23.9051 100.096 23.6175C100.386 23.3299 100.62 22.9897 100.799 22.5965C100.977 22.2037 101.075 21.7866 101.094 21.3454V13.3209C101.094 13.0719 101.178 12.8607 101.347 12.6881C101.516 12.5155 101.722 12.4293 101.965 12.4293C102.209 12.4293 102.415 12.5155 102.584 12.6881C102.752 12.8607 102.837 13.0719 102.837 13.3209V25.4869C102.837 25.7363 102.752 25.9471 102.584 26.1196C102.415 26.2922 102.209 26.3785 101.965 26.3785C101.722 26.3785 101.516 26.2922 101.347 26.1196C101.178 25.9471 101.094 25.7363 101.094 25.4869V25.113C100.663 25.4968 100.166 25.8032 99.6041 26.0334C99.0418 26.2634 98.4419 26.3785 97.805 26.3785C97.1114 26.3785 96.4557 26.2445 95.8372 25.9758C95.2188 25.7075 94.6798 25.3386 94.2209 24.8685C93.7614 24.3989 93.4007 23.8475 93.1386 23.2147C92.876 22.582 92.745 21.911 92.745 21.2014V13.3208L92.745 13.3209Z" stroke="#4A4A4A" stroke-width="0.5"/>
<path fill-rule="evenodd" clip-rule="evenodd" d="M106.491 8.89163C106.491 8.64261 106.575 8.43145 106.744 8.25888C106.913 8.08631 107.119 8.00003 107.362 8.00003C107.606 8.00003 107.812 8.08631 107.981 8.25888C108.149 8.43145 108.234 8.64261 108.234 8.89163V12.4005H110.108C110.354 12.4005 110.563 12.4868 110.733 12.6594C110.904 12.832 110.989 13.0432 110.989 13.2921C110.989 13.5416 110.904 13.7523 110.733 13.9249C110.563 14.0975 110.354 14.1837 110.108 14.1837H108.234V25.4867C108.234 25.7362 108.151 25.9469 107.985 26.1194C107.819 26.2921 107.616 26.3783 107.376 26.3783C107.137 26.3783 106.934 26.2921 106.768 26.1194C106.602 25.9469 106.519 25.7362 106.519 25.4867V14.1837H104.644C104.398 14.1837 104.19 14.0974 104.02 13.9249C103.849 13.7523 103.764 13.5415 103.764 13.2921C103.764 13.0432 103.849 12.832 104.017 12.6594C104.186 12.4868 104.392 12.4005 104.636 12.4005H106.491V8.89163H106.491Z" fill="#4A4A4A"/>
<path fill-rule="evenodd" clip-rule="evenodd" d="M106.491 8.89163C106.491 8.64261 106.575 8.43145 106.744 8.25888C106.913 8.08631 107.119 8.00003 107.362 8.00003C107.606 8.00003 107.812 8.08631 107.981 8.25888C108.149 8.43145 108.234 8.64261 108.234 8.89163V12.4005H110.108C110.354 12.4005 110.563 12.4868 110.733 12.6594C110.904 12.832 110.989 13.0432 110.989 13.2921C110.989 13.5416 110.904 13.7523 110.733 13.9249C110.563 14.0975 110.354 14.1837 110.108 14.1837H108.234V25.4867C108.234 25.7362 108.151 25.9469 107.985 26.1194C107.819 26.2921 107.616 26.3783 107.376 26.3783C107.137 26.3783 106.934 26.2921 106.768 26.1194C106.602 25.9469 106.519 25.7362 106.519 25.4867V14.1837H104.644C104.398 14.1837 104.19 14.0974 104.02 13.9249C103.849 13.7523 103.764 13.5415 103.764 13.2921C103.764 13.0432 103.849 12.832 104.017 12.6594C104.186 12.4868 104.392 12.4005 104.636 12.4005H106.491V8.89163H106.491Z" stroke="#4A4A4A" stroke-width="0.5"/>
<path fill-rule="evenodd" clip-rule="evenodd" d="M110.16 25.577C110.16 25.3556 110.236 25.1664 110.389 25.01C110.542 24.8537 110.727 24.7755 110.943 24.7755C111.16 24.7755 111.345 24.8537 111.497 25.01C111.65 25.1664 111.727 25.3556 111.727 25.577C111.727 25.7987 111.65 25.9875 111.497 26.1439C111.345 26.3003 111.16 26.3785 110.943 26.3785C110.727 26.3785 110.542 26.3003 110.389 26.1439C110.236 25.9875 110.16 25.7987 110.16 25.577Z" fill="#4A4A4A"/>
<path fill-rule="evenodd" clip-rule="evenodd" d="M110.16 25.577C110.16 25.3556 110.236 25.1664 110.389 25.01C110.542 24.8537 110.727 24.7755 110.943 24.7755C111.16 24.7755 111.345 24.8537 111.497 25.01C111.65 25.1664 111.727 25.3556 111.727 25.577C111.727 25.7987 111.65 25.9875 111.497 26.1439C111.345 26.3003 111.16 26.3785 110.943 26.3785C110.727 26.3785 110.542 26.3003 110.389 26.1439C110.236 25.9875 110.16 25.7987 110.16 25.577Z" stroke="#4A4A4A" stroke-width="0.5"/>
<path fill-rule="evenodd" clip-rule="evenodd" d="M120.115 21.667C120.115 21.185 120.026 20.7287 119.847 20.2986C119.669 19.8685 119.424 19.494 119.112 19.1745C118.8 18.8553 118.434 18.6045 118.013 18.4219C117.593 18.2395 117.147 18.1482 116.676 18.1482C116.204 18.1482 115.762 18.2395 115.348 18.4219C114.934 18.6045 114.571 18.8553 114.259 19.1745C113.946 19.494 113.701 19.8685 113.523 20.2986C113.345 20.7286 113.256 21.185 113.256 21.667C113.256 22.1493 113.345 22.6023 113.523 23.0257C113.701 23.4493 113.946 23.8207 114.259 24.1399C114.571 24.4594 114.934 24.7102 115.348 24.8925C115.762 25.0752 116.204 25.1662 116.676 25.1662C117.134 25.1662 117.567 25.0783 117.975 24.9023C118.383 24.7264 118.742 24.482 119.055 24.1692C119.367 23.8565 119.615 23.4884 119.8 23.0647C119.984 22.6414 120.089 22.1753 120.115 21.667L120.115 21.667ZM120.115 24.5993C119.695 25.0816 119.188 25.4955 118.596 25.8406C118.004 26.1861 117.364 26.3587 116.676 26.3587C116.039 26.3587 115.443 26.2414 114.889 26.0068C114.335 25.7722 113.848 25.4466 113.428 25.0293C113.007 24.6124 112.676 24.1173 112.434 23.5436C112.192 22.9703 112.071 22.3447 112.071 21.6669C112.071 21.0154 112.189 20.3996 112.425 19.8195C112.66 19.2398 112.985 18.7345 113.399 18.3045C113.813 17.8744 114.303 17.5357 114.87 17.2879C115.437 17.0405 116.052 16.9166 116.714 16.9166C117.325 16.9166 117.908 17.0436 118.462 17.2977C119.016 17.5518 119.504 17.894 119.924 18.324C120.344 18.7541 120.679 19.256 120.927 19.8293C121.175 20.403 121.3 21.0154 121.3 21.6669V25.7917C121.3 25.9613 121.242 26.1045 121.128 26.2218C121.013 26.3391 120.873 26.3977 120.707 26.3977C120.542 26.3977 120.402 26.3391 120.287 26.2218C120.172 26.1045 120.115 25.9612 120.115 25.7917V24.5992L120.115 24.5993Z" fill="#4A4A4A"/>
<path fill-rule="evenodd" clip-rule="evenodd" d="M120.115 21.667C120.115 21.185 120.026 20.7287 119.847 20.2986C119.669 19.8685 119.424 19.494 119.112 19.1745C118.8 18.8553 118.434 18.6045 118.013 18.4219C117.593 18.2395 117.147 18.1482 116.676 18.1482C116.204 18.1482 115.762 18.2395 115.348 18.4219C114.934 18.6045 114.571 18.8553 114.259 19.1745C113.946 19.494 113.701 19.8685 113.523 20.2986C113.345 20.7286 113.256 21.185 113.256 21.667C113.256 22.1493 113.345 22.6023 113.523 23.0257C113.701 23.4493 113.946 23.8207 114.259 24.1399C114.571 24.4594 114.934 24.7102 115.348 24.8925C115.762 25.0752 116.204 25.1662 116.676 25.1662C117.134 25.1662 117.567 25.0783 117.975 24.9023C118.383 24.7264 118.742 24.482 119.055 24.1692C119.367 23.8565 119.615 23.4884 119.8 23.0647C119.984 22.6414 120.089 22.1753 120.115 21.667L120.115 21.667ZM120.115 24.5993C119.695 25.0816 119.188 25.4955 118.596 25.8406C118.004 26.1861 117.364 26.3587 116.676 26.3587C116.039 26.3587 115.443 26.2414 114.889 26.0068C114.335 25.7722 113.848 25.4466 113.428 25.0293C113.007 24.6124 112.676 24.1173 112.434 23.5436C112.192 22.9703 112.071 22.3447 112.071 21.6669C112.071 21.0154 112.189 20.3996 112.425 19.8195C112.66 19.2398 112.985 18.7345 113.399 18.3045C113.813 17.8744 114.303 17.5357 114.87 17.2879C115.437 17.0405 116.052 16.9166 116.714 16.9166C117.325 16.9166 117.908 17.0436 118.462 17.2977C119.016 17.5518 119.504 17.894 119.924 18.324C120.344 18.7541 120.679 19.256 120.927 19.8293C121.175 20.403 121.3 21.0154 121.3 21.6669V25.7917C121.3 25.9613 121.242 26.1045 121.128 26.2218C121.013 26.3391 120.873 26.3977 120.707 26.3977C120.542 26.3977 120.402 26.3391 120.287 26.2218C120.172 26.1045 120.115 25.9612 120.115 25.7917V24.5992L120.115 24.5993Z" stroke="#4A4A4A" stroke-width="0.5"/>
<path fill-rule="evenodd" clip-rule="evenodd" d="M123.401 14.4929C123.401 14.3237 123.458 14.1801 123.573 14.0628C123.688 13.9456 123.828 13.8869 123.993 13.8869C124.159 13.8869 124.299 13.9455 124.414 14.0628C124.528 14.1801 124.586 14.3237 124.586 14.4929V16.8779H125.86C126.027 16.8779 126.169 16.9366 126.284 17.0539C126.4 17.1711 126.458 17.3147 126.458 17.4839C126.458 17.6535 126.4 17.7967 126.284 17.914C126.169 18.0313 126.027 18.0899 125.86 18.0899H124.586V25.7726C124.586 25.9421 124.529 26.0854 124.416 26.2027C124.303 26.32 124.166 26.3786 124.003 26.3786C123.84 26.3786 123.702 26.32 123.589 26.2027C123.476 26.0854 123.42 25.9421 123.42 25.7726V18.0899H122.146C121.979 18.0899 121.837 18.0313 121.721 17.914C121.606 17.7967 121.548 17.6535 121.548 17.4839C121.548 17.3147 121.605 17.1711 121.72 17.0539C121.834 16.9366 121.974 16.8779 122.14 16.8779H123.401V14.4929H123.401Z" fill="#4A4A4A"/>
<path fill-rule="evenodd" clip-rule="evenodd" d="M123.401 14.4929C123.401 14.3237 123.458 14.1801 123.573 14.0628C123.688 13.9456 123.828 13.8869 123.993 13.8869C124.159 13.8869 124.299 13.9455 124.414 14.0628C124.528 14.1801 124.586 14.3237 124.586 14.4929V16.8779H125.86C126.027 16.8779 126.169 16.9366 126.284 17.0539C126.4 17.1711 126.458 17.3147 126.458 17.4839C126.458 17.6535 126.4 17.7967 126.284 17.914C126.169 18.0313 126.027 18.0899 125.86 18.0899H124.586V25.7726C124.586 25.9421 124.529 26.0854 124.416 26.2027C124.303 26.32 124.166 26.3786 124.003 26.3786C123.84 26.3786 123.702 26.32 123.589 26.2027C123.476 26.0854 123.42 25.9421 123.42 25.7726V18.0899H122.146C121.979 18.0899 121.837 18.0313 121.721 17.914C121.606 17.7967 121.548 17.6535 121.548 17.4839C121.548 17.3147 121.605 17.1711 121.72 17.0539C121.834 16.9366 121.974 16.8779 122.14 16.8779H123.401V14.4929H123.401Z" stroke="#4A4A4A" stroke-width="0.5"/>
</svg>
