<?xml version="1.0" encoding="UTF-8"?><svg id="careLogo" xmlns="http://www.w3.org/2000/svg" viewBox="0 0 145 40"><path d="m2.93,10.67c-3.84,5.6-3.69,13.11.14,18.65,2.46,3.55,6.23,6.1,10.37,7.21,2.99.8,6.24.89,9.25-.02,2.19-.67,4.76-2.14,6.15-3.78.33-.38.65-.91.67-1.43.02-.42-.29-.74-.69-.81-.49-.07-1.05.33-1.32.49-.25.14-.78.45-1.18.63-.63.31-1.3.54-1.97.74-4.6,1.34-9.32-1.52-11.49-5.52-.2-.36-.38-.72-.54-1.1-.8-1.87-1.18-3.89-1.32-5.92-.16-2.39.02-4.8.71-7.1.74-2.44,2.08-4.65,3.96-6.36,1-.91,1.72-1.36,2.88-2.15.36-.25.72-.42.63-.81-.11-.51-.6-.56-1.09-.54-.24,0-1.07.09-1.16.11-3.62.38-8.31,1.85-11.6,4.91-.89.85-1.7,1.81-2.41,2.82l.01-.02Z" fill="#ef5844"/><path d="m109.04,19.9c.04-.74.81-.87,1.39-.87,1.03,0,1.76.05,2.91-.4,1.81-.71,3.11-2.39,3.38-4.26.34-2.37-.96-4.82-3.06-5.74-.05-.02-.18-.09-.24-.11-1.9-.8-4.14-.36-5.74.96-.6.49-1.07,1.1-1.45,1.77-1.18,2.19-1.59,4.69-1.48,7.15.27,5.81,2.95,11.05,8.69,12.98,1.85.62,3.82.58,4.99.27.87-.22,1.66-.6,2.42-1.07.74-.45,1.32-.89,2.23-1.54.45-.33,1.07-.53,1.45.07.4.62-.13,1.54-.49,2.05-.51.74-1.18,1.38-1.83,2.01-1.95,1.85-4.38,2.97-6.99,3.57-1.99.45-4.36.45-6.26.18-4.52-.63-8.8-3.19-11.56-6.81-1.18-1.54-2.08-3.28-2.68-5.12-1.47-4.67-.78-9.83,1.83-13.98.87-1.38,1.94-2.64,3.15-3.73,1.74-1.56,5.18-4.47,12.18-4.47,7.91,0,12.03,3.86,13.32,7.62.81,2.41.69,5.14-.43,7.46-1.27,2.61-3.73,4.74-8.72,4.71-2.1-.02-3.95-.27-5.81-1.09-.69-.33-1.25-.81-1.21-1.63l.01.02Z" fill="#ef5844"/><path d="m80.71,31.18v2.41c0,1.14.24,2.17,1.5,2.59.25.09.43.24.4.53-.05.33-.31.42-.6.43-.22.02-.42,0-.63,0h-12.2c-.24,0-.49,0-.72-.02-.25-.02-.49-.13-.54-.4-.05-.29.11-.45.38-.53,1.23-.38,1.52-1.36,1.52-2.48,0-7.93.02-16.28,0-24.21,0-1.05-.22-2.06-1.5-2.35-.25-.05-.43-.24-.4-.53.05-.36.33-.49.65-.51,1.21-.09,2.91-.36,4.09-.65,2.41-.6,4.71-1.47,6.97-2.43.9-.38,1.09-.27,1.09.65v8.43c.04,2.08,0,18.36,0,19.07h-.01Z" fill="#ef5844"/><path d="m25.16,13.71c3,0,5.43-2.43,5.43-5.43s-2.43-5.43-5.43-5.43-5.43,2.43-5.43,5.43,2.43,5.43,5.43,5.43Z" fill="#ef5844"/><path d="m43.07,13.71c3,0,5.43-2.43,5.43-5.43s-2.43-5.43-5.43-5.43-5.43,2.43-5.43,5.43,2.43,5.43,5.43,5.43Z" fill="#ef5844"/><path d="m87.95,13.71c3,0,5.43-2.43,5.43-5.43s-2.43-5.43-5.43-5.43-5.43,2.43-5.43,5.43,2.43,5.43,5.43,5.43Z" fill="#ef5844"/><path d="m133.38,37.14c3,0,5.43-2.43,5.43-5.43s-2.43-5.43-5.43-5.43-5.43,2.43-5.43,5.43,2.43,5.43,5.43,5.43Z" fill="#ef5844"/><path d="m61.82,22.06c0,3.66-.02,7.57-.02,11.25,0,1.29.09,2.5,1.63,2.95.24.07.33.27.29.51-.04.2-.18.33-.36.36-.24.04-.47.05-.72.05-3.58,0-6.91-.04-10.5,0-.81,0-1.09-.22-1.09-1.09,0-.42.02-.78,0-1.27,0-.27-.02-.62-.33-.72-.31-.11-.51.16-.71.36-1,1.01-2.1,1.68-3.46,2.19-4.27,1.59-10.46-.62-12.36-4.44-1.72-3.46-.74-7.28,2.39-9.71,2.06-1.61,4.34-2.64,6.68-3.91,1.9-1.1,3.8-2.17,5.48-3.62,3.55-3.08,3.82-7.32.67-10.79-.45-.49-.34-1.03.33-1.1,3.85-.47,7.55-.29,10.44,2.79,1.34,1.43,1.66,3.1,1.65,5.12-.05,3.68-.02,7.37-.02,11.06l.01.01Zm-10.88,1.34v-5.12c0-.63.05-.89-.67-.45-1.66.98-3.28,2.03-4.69,3.33-2.17,2.03-3.47,4.45-3.49,7.44-.02,2.43,1.41,4.47,3.38,4.8,2.66.45,5.37-1.97,5.45-4.94.05-1.68.02-3.37.02-5.05v-.01Z" fill="#ef5844"/><path d="m140.69,37.17h.33v-2.35h.84v-.29h-2v.29h.83v2.35Z" fill="#ef5844"/><path d="m144.54,37.17h.33v-2.64h-.47l-.82,2.01-.82-2.01h-.47v2.64h.33v-2.19l.89,2.19h.13l.9-2.19v2.19h0Z" fill="#ef5844"/></svg>