<?xml version="1.0" encoding="UTF-8"?>
<svg width="61px" height="58px" viewBox="0 0 61 58" version="1.1" xmlns="http://www.w3.org/2000/svg" xmlns:xlink="http://www.w3.org/1999/xlink">
    <!-- Generator: Sketch 52.3 (67297) - http://www.bohemiancoding.com/sketch -->
    <title>Group 8</title>
    <desc>Created with Sketch.</desc>
    <g id="Page-1" stroke="none" stroke-width="1" fill="none" fill-rule="evenodd">
        <g id="Artboard" transform="translate(-1350.000000, -329.000000)">
            <g id="Group-8" transform="translate(1350.000000, 330.000000)">
                <g id="Group-7" transform="translate(1.000000, 12.000000)">
                    <g id="Group-39">
                        <path d="M32.4703634,25.9314779 C32.7442092,27.5683058 33.8338164,29.1360779 35.2893441,28.8895965 C36.744532,28.643457 38.0145513,26.67605 37.7410453,25.0392221 C37.4671995,23.402736 36.0656935,22.2756221 34.6101658,22.5217616 C33.1549778,22.768243 32.1965176,24.29465 32.4703634,25.9314779" id="Fill-1" fill="#FFFFFF"></path>
                        <path d="M32.4703634,25.9314779 C32.7442092,27.5683058 33.8338164,29.1360779 35.2893441,28.8895965 C36.744532,28.643457 38.0145513,26.67605 37.7410453,25.0392221 C37.4671995,23.402736 36.0656935,22.2756221 34.6101658,22.5217616 C33.1549778,22.768243 32.1965176,24.29465 32.4703634,25.9314779 Z" id="Stroke-3" stroke="#444444" stroke-width="1.2" stroke-linecap="round" stroke-linejoin="round"></path>
                        <path d="M0.0465809639,31.4200819 C0.320426747,33.0569098 2.16022193,34.4975098 3.61574964,34.2513702 C5.07093759,34.0048888 5.59076892,32.164654 5.31726289,30.527826 C5.04341711,28.89134 3.64191108,27.7638842 2.18638337,28.0103656 C0.731195422,28.256847 -0.227264819,29.783254 0.0465809639,31.4200819" id="Fill-5" fill="#FFFFFF"></path>
                        <path d="M0.0465809639,31.4200819 C0.320426747,33.0569098 2.16022193,34.4975098 3.61574964,34.2513702 C5.07093759,34.0048888 5.59076892,32.164654 5.31726289,30.527826 C5.04341711,28.89134 3.64191108,27.7638842 2.18638337,28.0103656 C0.731195422,28.256847 -0.227264819,29.783254 0.0465809639,31.4200819 Z" id="Stroke-7" stroke="#444444" stroke-width="1.2" stroke-linecap="round" stroke-linejoin="round"></path>
                        <path d="M3.38213133,30.2127333 C4.8495506,38.9903426 13.1114711,44.9089728 21.8351241,43.4321356 C30.5587771,41.9556402 36.4410253,33.6426193 34.9732663,24.86501 C33.5055072,16.0874007 25.2442663,10.1687705 16.5202735,11.6456077 C7.79662048,13.122103 1.91437229,21.435124 3.38213133,30.2127333" id="Fill-9" fill="#FFFFFF"></path>
                        <path d="M3.38213133,30.2127333 C4.8495506,38.9903426 13.1114711,44.9089728 21.8351241,43.4321356 C30.5587771,41.9556402 36.4410253,33.6426193 34.9732663,24.86501 C33.5055072,16.0874007 25.2442663,10.1687705 16.5202735,11.6456077 C7.79662048,13.122103 1.91437229,21.435124 3.38213133,30.2127333 Z" id="Stroke-11" stroke="#444444" stroke-width="1.2" stroke-linecap="round" stroke-linejoin="round"></path>
                        <path d="M3.02477277,9.42334372 C3.75661373,13.8001833 7.87585229,16.7511228 12.2257872,16.0147553 C16.5757222,15.2783879 19.5088619,11.1336716 18.7766812,6.75683209 C18.04518,2.37999256 13.9256017,-0.570946977 9.57566675,0.165420465 C5.22607157,0.901787907 2.29327157,5.04650419 3.02477277,9.42334372" id="Fill-13" fill="#7DEAD7"></path>
                        <path d="M3.02477277,9.42334372 C3.75661373,13.8001833 7.87585229,16.7511228 12.2257872,16.0147553 C16.5757222,15.2783879 19.5088619,11.1336716 18.7766812,6.75683209 C18.04518,2.37999256 13.9256017,-0.570946977 9.57566675,0.165420465 C5.22607157,0.901787907 2.29327157,5.04650419 3.02477277,9.42334372 Z" id="Stroke-15" stroke="#444444" stroke-width="1.2" stroke-linecap="round" stroke-linejoin="round"></path>
                        <g id="Group-20" transform="translate(18.007229, 35.453488)" fill="#FFFFFF">
                            <path d="M8.36106217,0.190450465 C8.76605494,2.61287372 0.45385012,3.82852953 0.0797754217,1.59242023" id="Fill-17"></path>
                        </g>
                        <path d="M3.38213133,30.2127333 C7.25708313,27.596817 10.4192205,22.0826077 9.61263253,17.2569053 C15.625688,27.454603 35.1166446,25.543603 35.1166446,25.543603 L35.1166446,25.4889053 C35.2199313,23.4339821 34.3205892,21.5728937 33.9590855,19.4102844 C32.4512349,10.3923472 24.2154759,5.82133093 15.2529723,7.33850767 C6.29080843,8.85568442 0.903249398,15.3718867 2.41143976,24.389824 C2.73794819,26.3435565 2.82288795,28.5683844 3.41508795,30.4089612 L3.38213133,30.2127333 Z" id="Fill-29" fill="#7DEAD7"></path>
                        <path d="M3.38213133,30.2127333 C7.25708313,27.596817 10.4192205,22.0826077 9.61263253,17.2569053 C15.625688,27.454603 35.1166446,25.543603 35.1166446,25.543603 L35.1166446,25.4889053 C35.2199313,23.4339821 34.3205892,21.5728937 33.9590855,19.4102844 C32.4512349,10.3923472 24.2154759,5.82133093 15.2529723,7.33850767 C6.29080843,8.85568442 0.903249398,15.3718867 2.41143976,24.389824 C2.73794819,26.3435565 2.82288795,28.5683844 3.41508795,30.4089612 L3.38213133,30.2127333 Z" id="Stroke-31" stroke="#444444" stroke-width="1.2" stroke-linecap="round" stroke-linejoin="round"></path>
                        <path d="M14.7862793,6.71249279 C14.448219,6.01407186 13.949113,5.44726721 13.3558937,5.03600907 C12.1144142,4.17520442 10.4604672,3.99367651 9.00765759,4.70508814 C7.98464313,5.20591372 7.24668651,6.05919744 6.8668359,7.04922535" id="Stroke-33" stroke="#444444" stroke-width="1.2" stroke-linecap="round" stroke-linejoin="round"></path>
                        <path d="M33.9362198,20.9314267 C28.09848,21.1956849 20.3030487,20.6842616 15.9007908,14.7430686" id="Stroke-35" stroke="#444444" stroke-width="1.2" stroke-linecap="round" stroke-linejoin="round"></path>
                    </g>
                    <path d="M14.9369,29 C14.4167,29.6114 13.8053,30.029 13.1075,30.2186 C12.4364,30.4007 11.7278,30.3602 11,30.1214" id="Stroke-16" stroke="#444444" stroke-width="1.2" stroke-linecap="round" stroke-linejoin="round"></path>
                    <path d="M27.9369,26 C27.4164,26.6117 26.8053,27.0293 26.1072,27.2186 C25.4364,27.401 24.7275,27.3605 24,27.1214" id="Stroke-18" stroke="#444444" stroke-width="1.2" stroke-linecap="round" stroke-linejoin="round"></path>
                    <path d="M23.3147735,35.9107866 C23.7471484,37.1608296 23.3966843,38.3468913 22.5327496,38.5598182 C21.6684073,38.7727452 20.6174226,37.9320449 20.1850477,36.6820019 C19.7530804,35.4319589 20.1031369,34.2458972 20.9670716,34.0329703 C21.8314139,33.8200433 22.8823986,34.6607436 23.3147735,35.9107866" id="Fill-20" fill="#444444"></path>
                </g>
                <polyline id="Stroke-3" stroke="#444444" stroke-width="1.2" stroke-linecap="round" stroke-linejoin="round" points="44 39.4108 51.2321 37 47.6162 45.8395 55.2503 43.4287"></polyline>
                <polyline id="Stroke-4" stroke="#444444" stroke-width="1.2" stroke-linecap="round" stroke-linejoin="round" points="49 20.4108 56.2321 18 52.6162 26.8398 60.2503 24.429"></polyline>
                <polyline id="Stroke-6" stroke="#444444" stroke-width="0.9828" stroke-linecap="round" stroke-linejoin="round" points="28 6.9743 33.9232 5 30.9616 12.2396 37.2142 10.265"></polyline>
                <polyline id="Stroke-7" stroke="#444444" stroke-width="0.9828" stroke-linecap="round" stroke-linejoin="round" points="9.85878046e-14 1.9743 5.9232 -2.66453526e-15 2.9616 7.2396 9.2139 5.265"></polyline>
            </g>
        </g>
    </g>
</svg>