<?xml version="1.0" encoding="UTF-8"?>
<svg width="91px" height="51px" viewBox="0 0 91 51" version="1.1" xmlns="http://www.w3.org/2000/svg" xmlns:xlink="http://www.w3.org/1999/xlink">
    <!-- Generator: Sketch 52.3 (67297) - http://www.bohemiancoding.com/sketch -->
    <title>Group 40</title>
    <desc>Created with Sketch.</desc>
    <g id="Page-1" stroke="none" stroke-width="1" fill="none" fill-rule="evenodd">
        <g id="Artboard" transform="translate(-540.000000, -324.000000)">
            <g id="Group-40" transform="translate(541.000000, 325.000000)">
                <g id="Group-39">
                    <path d="M32.4703634,30.9314779 C32.7442092,32.5683058 33.8338164,34.1360779 35.2893441,33.8895965 C36.744532,33.643457 38.0145513,31.67605 37.7410453,30.0392221 C37.4671995,28.402736 36.0656935,27.2756221 34.6101658,27.5217616 C33.1549778,27.768243 32.1965176,29.29465 32.4703634,30.9314779" id="Fill-1" fill="#FFFFFF"></path>
                    <path d="M32.4703634,30.9314779 C32.7442092,32.5683058 33.8338164,34.1360779 35.2893441,33.8895965 C36.744532,33.643457 38.0145513,31.67605 37.7410453,30.0392221 C37.4671995,28.402736 36.0656935,27.2756221 34.6101658,27.5217616 C33.1549778,27.768243 32.1965176,29.29465 32.4703634,30.9314779 Z" id="Stroke-3" stroke="#444444" stroke-width="1.2" stroke-linecap="round" stroke-linejoin="round"></path>
                    <path d="M0.0465809639,36.4200819 C0.320426747,38.0569098 2.16022193,39.4975098 3.61574964,39.2513702 C5.07093759,39.0048888 5.59076892,37.164654 5.31726289,35.527826 C5.04341711,33.89134 3.64191108,32.7638842 2.18638337,33.0103656 C0.731195422,33.256847 -0.227264819,34.783254 0.0465809639,36.4200819" id="Fill-5" fill="#FFFFFF"></path>
                    <path d="M0.0465809639,36.4200819 C0.320426747,38.0569098 2.16022193,39.4975098 3.61574964,39.2513702 C5.07093759,39.0048888 5.59076892,37.164654 5.31726289,35.527826 C5.04341711,33.89134 3.64191108,32.7638842 2.18638337,33.0103656 C0.731195422,33.256847 -0.227264819,34.783254 0.0465809639,36.4200819 Z" id="Stroke-7" stroke="#444444" stroke-width="1.2" stroke-linecap="round" stroke-linejoin="round"></path>
                    <path d="M3.38213133,35.2127333 C4.8495506,43.9903426 13.1114711,49.9089728 21.8351241,48.4321356 C30.5587771,46.9556402 36.4410253,38.6426193 34.9732663,29.86501 C33.5055072,21.0874007 25.2442663,15.1687705 16.5202735,16.6456077 C7.79662048,18.122103 1.91437229,26.435124 3.38213133,35.2127333" id="Fill-9" fill="#FFFFFF"></path>
                    <path d="M3.38213133,35.2127333 C4.8495506,43.9903426 13.1114711,49.9089728 21.8351241,48.4321356 C30.5587771,46.9556402 36.4410253,38.6426193 34.9732663,29.86501 C33.5055072,21.0874007 25.2442663,15.1687705 16.5202735,16.6456077 C7.79662048,18.122103 1.91437229,26.435124 3.38213133,35.2127333 Z" id="Stroke-11" stroke="#444444" stroke-width="1.2" stroke-linecap="round" stroke-linejoin="round"></path>
                    <path d="M3.02477277,14.4233437 C3.75661373,18.8001833 7.87585229,21.7511228 12.2257872,21.0147553 C16.5757222,20.2783879 19.5088619,16.1336716 18.7766812,11.7568321 C18.04518,7.37999256 13.9256017,4.42905302 9.57566675,5.16542047 C5.22607157,5.90178791 2.29327157,10.0465042 3.02477277,14.4233437" id="Fill-13" fill="#7DEAD7"></path>
                    <path d="M3.02477277,14.4233437 C3.75661373,18.8001833 7.87585229,21.7511228 12.2257872,21.0147553 C16.5757222,20.2783879 19.5088619,16.1336716 18.7766812,11.7568321 C18.04518,7.37999256 13.9256017,4.42905302 9.57566675,5.16542047 C5.22607157,5.90178791 2.29327157,10.0465042 3.02477277,14.4233437 Z" id="Stroke-15" stroke="#444444" stroke-width="1.2" stroke-linecap="round" stroke-linejoin="round"></path>
                    <g id="Group-20" transform="translate(18.007229, 40.453488)">
                        <path d="M8.36106217,0.190450465 C8.76605494,2.61287372 0.45385012,3.82852953 0.0797754217,1.59242023" id="Fill-17" fill="#FFFFFF"></path>
                        <path d="M8.36106217,0.190450465 C8.76605494,2.61287372 0.45385012,3.82852953 0.0797754217,1.59242023" id="Stroke-19" stroke="#444444" stroke-width="1.2" stroke-linecap="round" stroke-linejoin="round"></path>
                    </g>
                    <path d="M26.8384496,31.9041393 C26.9862448,32.7864812 27.6861484,33.4031974 28.4023605,33.281837 C29.117893,33.1608184 29.5786063,32.3471905 29.4314906,31.4651905 C29.2836954,30.5831905 28.5841316,29.9661323 27.8679195,30.0874928 C27.1520472,30.2088533 26.6909942,31.0217974 26.8384496,31.9041393" id="Fill-21" fill="#4A4A4A"></path>
                    <path d="M26.8384496,31.9041393 C26.9862448,32.7864812 27.6861484,33.4031974 28.4023605,33.281837 C29.117893,33.1608184 29.5786063,32.3471905 29.4314906,31.4651905 C29.2836954,30.5831905 28.5841316,29.9661323 27.8679195,30.0874928 C27.1520472,30.2088533 26.6909942,31.0217974 26.8384496,31.9041393 Z" id="Stroke-23" stroke="#444444" stroke-width="0.5"></path>
                    <path d="M11.757973,34.456914 C11.9054284,35.3392558 12.605332,35.9559721 13.3215441,35.8346116 C14.0374164,35.713593 14.4981296,34.8999651 14.3506742,34.0179651 C14.2032188,33.1359651 13.5033152,32.5192488 12.7871031,32.6402674 C12.0712308,32.7616279 11.6101778,33.5745721 11.757973,34.456914" id="Fill-25" fill="#4A4A4A"></path>
                    <path d="M11.757973,34.456914 C11.9054284,35.3392558 12.605332,35.9559721 13.3215441,35.8346116 C14.0374164,35.713593 14.4981296,34.8999651 14.3506742,34.0179651 C14.2032188,33.1359651 13.5033152,32.5192488 12.7871031,32.6402674 C12.0712308,32.7616279 11.6101778,33.5745721 11.757973,34.456914 Z" id="Stroke-27" stroke="#444444" stroke-width="0.5"></path>
                    <path d="M3.38213133,35.2127333 C7.25708313,32.596817 10.4192205,27.0826077 9.61263253,22.2569053 C15.625688,32.454603 35.1166446,30.543603 35.1166446,30.543603 L35.1166446,30.4889053 C35.2199313,28.4339821 34.3205892,26.5728937 33.9590855,24.4102844 C32.4512349,15.3923472 24.2154759,10.8213309 15.2529723,12.3385077 C6.29080843,13.8556844 0.903249398,20.3718867 2.41143976,29.389824 C2.73794819,31.3435565 2.82288795,33.5683844 3.41508795,35.4089612 L3.38213133,35.2127333 Z" id="Fill-29" fill="#7DEAD7"></path>
                    <path d="M3.38213133,35.2127333 C7.25708313,32.596817 10.4192205,27.0826077 9.61263253,22.2569053 C15.625688,32.454603 35.1166446,30.543603 35.1166446,30.543603 L35.1166446,30.4889053 C35.2199313,28.4339821 34.3205892,26.5728937 33.9590855,24.4102844 C32.4512349,15.3923472 24.2154759,10.8213309 15.2529723,12.3385077 C6.29080843,13.8556844 0.903249398,20.3718867 2.41143976,29.389824 C2.73794819,31.3435565 2.82288795,33.5683844 3.41508795,35.4089612 L3.38213133,35.2127333 Z" id="Stroke-31" stroke="#444444" stroke-width="1.2" stroke-linecap="round" stroke-linejoin="round"></path>
                    <path d="M14.7862793,11.7124928 C14.448219,11.0140719 13.949113,10.4472672 13.3558937,10.0360091 C12.1144142,9.17520442 10.4604672,8.99367651 9.00765759,9.70508814 C7.98464313,10.2059137 7.24668651,11.0591974 6.8668359,12.0492253" id="Stroke-33" stroke="#444444" stroke-width="1.2" stroke-linecap="round" stroke-linejoin="round"></path>
                    <path d="M33.9362198,25.9314267 C28.09848,26.1956849 20.3030487,25.6842616 15.9007908,19.7430686" id="Stroke-35" stroke="#444444" stroke-width="1.2" stroke-linecap="round" stroke-linejoin="round"></path>
                    <path d="M88.5254729,17.8832453 C86.3414283,4.10117159 78.3550325,-1.69863791 64.5660189,0.484349643 C50.7772719,2.66707079 44.9957109,9.63083839 49.6268769,23.1467656 C50.5672368,25.8913516 52.062004,28.6188872 52.3426726,32.4496387 C52.7640754,38.2044245 47.7994655,42.365528 43.6214207,43.6959942 C52.0548073,45.7934632 71.6552346,41.7418554 71.6552346,41.7418554 L71.6547015,41.7415889 C85.0566962,39.4373835 90.6807309,31.4849575 88.5254729,17.8832453 Z" id="Stroke-37" stroke="#7DEAD7" stroke-width="1.2" stroke-linecap="round" stroke-linejoin="round" stroke-dasharray="0.8999999999999999,3"></path>
                </g>
                <text id="Hi!" font-family="Avenir-Heavy, Avenir" font-size="12" font-weight="600" fill="#444444">
                    <tspan x="60" y="25">Hi!</tspan>
                </text>
            </g>
        </g>
    </g>
</svg>