<svg id="Instagram-Filled" data-name="Layer 1" xmlns="http://www.w3.org/2000/svg" viewBox="0 0 48 48"><g id="b327c0be-f657-46c9-853f-c65a97f7d5eb" data-name="Instagram-Filled"><g id="b71d285e-5d74-4f19-8b14-5a3657b836ff" data-name="COLORED OR TRANSPARENT"><circle id="e724a683-3033-43cc-b246-534ea04d74b1" data-name="path-1" cx="24" cy="24" r="24" fill="#213f5f"/></g><g id="f3284542-bfd8-4d7d-b3bf-8f32848a7634" data-name="STROKES"><path id="fb1c7b7a-b318-4d8b-8280-3c8c5afb38f4" data-name="path-3" d="M30.63,18.11a1.32,1.32,0,1,1-1.32-1.31,1.32,1.32,0,0,1,1.32,1.31M24,26.87a3.65,3.65,0,1,1,3.65-3.65A3.65,3.65,0,0,1,24,26.87m0-9.27a5.62,5.62,0,1,0,5.62,5.62A5.62,5.62,0,0,0,24,17.6m-.27-4.8c-3,0-3.35,0-4.52.07a7.67,7.67,0,0,0-2.65.51,5.56,5.56,0,0,0-3.2,3.2,7.67,7.67,0,0,0-.51,2.65c-.06,1.17-.07,1.54-.07,4.52s0,3.34.07,4.51a7.78,7.78,0,0,0,.51,2.66,5.23,5.23,0,0,0,1.26,1.94,5.49,5.49,0,0,0,1.94,1.26,8.17,8.17,0,0,0,2.65.51c1.17,0,1.54.06,4.52.06s3.34,0,4.51-.06a8.3,8.3,0,0,0,2.66-.51,5.56,5.56,0,0,0,3.2-3.2,8.3,8.3,0,0,0,.51-2.66c0-1.17.06-1.54.06-4.51s0-3.35-.06-4.52a8.17,8.17,0,0,0-.51-2.65,5.49,5.49,0,0,0-1.26-1.94,5.23,5.23,0,0,0-1.94-1.26,7.78,7.78,0,0,0-2.66-.51c-1.17-.06-1.54-.07-4.51-.07m0,2c2.92,0,3.27,0,4.42.07a5.82,5.82,0,0,1,2,.37,3.44,3.44,0,0,1,1.26.82,3.52,3.52,0,0,1,.82,1.26,6.12,6.12,0,0,1,.38,2c.05,1.16.06,1.5.06,4.43s0,3.27-.06,4.42a6,6,0,0,1-.38,2,3.63,3.63,0,0,1-2.08,2.08,6,6,0,0,1-2,.38c-1.15.05-1.5.06-4.42.06s-3.27,0-4.43-.06a6.12,6.12,0,0,1-2-.38A3.52,3.52,0,0,1,16,31.46a3.44,3.44,0,0,1-.82-1.26,5.82,5.82,0,0,1-.37-2c-.06-1.15-.07-1.5-.07-4.42s0-3.27.07-4.43a5.93,5.93,0,0,1,.37-2,3.63,3.63,0,0,1,2.08-2.08,5.93,5.93,0,0,1,2-.37c1.16-.06,1.5-.07,4.43-.07" fill="#f9f9f9" fill-rule="evenodd"/></g></g></svg>