<svg id="Twitter-Filled" data-name="Layer 1" xmlns="http://www.w3.org/2000/svg" viewBox="0 0 48 48"><g id="a4a184f2-6517-41ce-a03b-680eb95da5b6" data-name="Twitter-Filled"><g id="bace264b-9635-4a77-acd0-5067c0fe296a" data-name="COLORED OR TRANSPARENT"><circle id="b85f0b9e-12b4-4e9f-a8de-32de666bcf46" data-name="path-1" cx="24" cy="24" r="24" fill="#213f5f"/></g><g id="af530523-f567-42e8-b210-42863af38be4" data-name="STROKES"><path id="ebc9774b-f547-451f-ac13-f8ce46b002f5" data-name="path-3" d="M20.63,32.21A11.53,11.53,0,0,0,32.2,20.56c0-.17,0-.35,0-.52a8.53,8.53,0,0,0,2-2.12,8.21,8.21,0,0,1-2.34.64,4.1,4.1,0,0,0,1.79-2.26,8.27,8.27,0,0,1-2.58,1,4.06,4.06,0,0,0-4.89-.81,4.11,4.11,0,0,0-2,4.54,11.51,11.51,0,0,1-8.38-4.27A4.1,4.1,0,0,0,17,22.21a4,4,0,0,1-1.85-.51v.05a4.08,4.08,0,0,0,3.26,4,3.9,3.9,0,0,1-1.83.07,4.06,4.06,0,0,0,3.8,2.84,8.14,8.14,0,0,1-5.05,1.76,7.77,7.77,0,0,1-1-.06,11.49,11.49,0,0,0,6.23,1.84" fill="#f9f9f9" fill-rule="evenodd"/></g></g></svg>