<svg id="YouTube-Filled" data-name="Layer 1" xmlns="http://www.w3.org/2000/svg" viewBox="0 0 48 48"><g id="ae54a03c-6bb4-40f6-88a9-06d8e97a6d08" data-name="YouTube-Filled"><g id="b51e443a-b6c5-419b-9632-62fdf11a1ff0" data-name="COLORED OR TRANSPARENT"><circle id="b944649d-11bf-4aba-8f91-a3ccf9e681be" data-name="path-1" cx="24" cy="24" r="24" fill="#213f5f"/></g><g id="eb47d1b5-42dd-4dd1-86e3-03c5df7dbed7" data-name="STROKES"><path id="a5826175-2e33-4c24-9c4d-0631987b274a" data-name="path-3" d="M21.49,26.54V20.39l5.91,3.08Zm13-7.22a4.67,4.67,0,0,0-.87-2.17,3.13,3.13,0,0,0-2.19-.93C28.35,16,23.75,16,23.75,16h0s-4.59,0-7.66.22a3.14,3.14,0,0,0-2.19.93A4.67,4.67,0,0,0,13,19.32a32.89,32.89,0,0,0-.22,3.54v1.67A32.89,32.89,0,0,0,13,28.07a4.67,4.67,0,0,0,.87,2.17,3.72,3.72,0,0,0,2.41.94c1.76.17,7.45.22,7.45.22s4.6,0,7.66-.23a3.13,3.13,0,0,0,2.19-.93,4.67,4.67,0,0,0,.87-2.17,32.89,32.89,0,0,0,.22-3.54V22.86A32.89,32.89,0,0,0,34.47,19.32Z" fill="#f9f9f9" fill-rule="evenodd"/></g></g></svg>